P2
100 75
255
109
234
138
20
128
237
126
21
137
233
116
23
152
233
100
26
165
228
90
32
172
223
78
35
188
216
63
45
197
209
58
51
204
201
47
60
217
191
40
72
219
181
35
81
227
172
26
94
232
158
77
227
172
31
96
227
159
26
102
234
150
22
116
234
133
22
131
235
123
22
142
236
110
23
155
233
96
27
166
228
88
29
176
225
74
36
189
216
67
46
196
211
56
49
206
203
46
63
213
181
230
62
29
201
225
55
36
209
218
40
45
221
205
31
61
227
195
25
68
234
184
18
85
241
164
14
98
244
159
11
108
247
142
9
127
247
123
10
138
247
116
10
152
245
95
12
172
240
83
20
82
19
183
234
65
27
201
226
53
35
207
220
46
42
218
208
31
57
230
196
27
64
232
189
21
77
240
172
12
94
243
160
11
102
246
148
8
121
249
131
8
135
247
117
10
146
245
105
13
170
37
81
233
175
21
89
240
162
15
104
240
147
16
117
243
136
11
130
245
120
14
143
240
109
18
154
240
96
17
169
235
84
27
177
227
75
34
191
223
59
39
205
212
51
52
210
202
42
60
219
243
136
15
125
243
126
14
138
245
112
16
152
238
101
21
164
237
87
21
179
231
74
32
186
221
65
39
201
218
52
46
209
206
45
59
217
196
35
66
227
186
25
79
234
173
23
93
235
164
24
127
246
117
9
152
245
100
12
163
241
91
15
176
237
75
23
193
232
63
30
200
224
51
36
212
216
38
48
223
203
34
58
228
195
25
68
238
181
16
85
242
170
13
91
246
158
9
111
248
141
52
230
196
26
68
233
185
20
77
238
174
14
94
244
154
12
110
246
148
9
119
248
130
10
140
246
113
10
150
247
105
10
163
244
87
16
179
238
75
22
188
234
63
26
203
224
48
38
211
205
220
51
42
209
208
47
51
218
203
34
61
224
190
29
77
230
178
21
86
238
166
16
101
241
148
16
117
244
138
11
125
245
123
11
144
242
107
15
155
242
98
15
164
240
85
22
181
231
74
30
101
20
170
237
82
23
184
230
70
32
190
222
62
37
206
214
45
47
216
205
41
58
222
197
30
67
234
183
24
80
236
172
19
92
241
160
12
105
246
145
13
120
243
136
13
133
245
119
11
152
29
86
236
169
16
97
245
154
11
114
244
141
13
121
243
130
11
139
245
109
14
156
239
101
19
163
237
87
22
181
232
72
29
190
224
64
35
201
218
49
44
212
208
42
55
218
199
35
64
226
241
146
14
115
244
137
11
130
245
118
13
148
241
107
14
158
242
95
16
173
237
79
23
183
228
70
30
194
229
59
37
206
213
47
50
213
208
40
56
223
197
31
70
229
181
26
84
235
173
22
148
245
96
12
172
241
79
19
185
236
71
22
194
231
57
30
208
220
46
45
215
210
38
49
224
202
28
64
233
185
22
76
237
178
16
87
242
161
12
107
245
149
9
116
247
138
8
132
248
120
41
221
211
36
50
222
203
32
59
231
191
20
73
239
177
17
87
243
169
14
97
247
150
9
117
247
137
8
125
246
126
9
143
247
107
12
160
244
98
15
169
240
82
19
185
234
65
26
198
219
212
46
51
212
200
42
61
222
192
31
69
230
181
25
85
233
167
22
95
240
157
15
108
244
140
16
124
241
131
14
134
245
116
12
149
241
101
21
160
236
94
22
175
233
77
27
185
227
69
39
111
16
159
240
91
21
173
231
81
28
182
226
69
31
195
220
56
42
203
210
51
55
214
203
37
61
225
190
32
75
228
177
26
86
237
168
17
97
241
152
18
113
241
142
13
122
245
127
12
144
18
98
246
157
12
109
246
139
7
128
248
123
8
140
246
112
10
154
245
94
14
172
240
80
19
180
237
72
23
196
227
54
34
205
220
49
43
215
213
37
50
228
199
26
63
232
194
22
71
235
240
162
13
99
245
154
10
114
247
133
8
132
248
125
10
142
248
107
11
159
243
91
16
171
242
82
17
184
236
67
25
198
227
54
35
205
222
46
41
217
211
35
55
227
198
29
67
231
191
24
162
238
83
21
183
233
70
30
192
224
61
36
203
219
49
45
212
205
42
58
221
196
32
65
228
187
25
82
232
169
22
95
238
162
15
105
244
145
12
122
243
131
14
132
246
119
10
148
245
105
35
204
217
54
43
208
211
44
50
221
200
31
63
228
189
27
76
233
179
19
86
241
163
16
101
244
152
14
111
244
141
10
128
247
123
12
141
243
112
16
150
241
98
17
170
237
85
24
178
221
207
37
56
224
194
33
66
227
187
24
78
238
174
16
92
240
161
16
101
242
150
12
119
247
133
11
133
243
125
14
142
243
107
15
160
241
91
19
172
233
84
25
182
229
66
31
196
221
59
42
114
14
152
245
99
16
165
238
87
20
177
236
77
24
189
228
61
35
199
219
54
42
210
212
44
52
218
199
34
66
225
187
27
75
233
178
19
89
238
159
19
105
241
151
14
114
245
136
12
137
16
121
248
132
9
131
248
118
9
151
246
101
12
163
244
92
13
174
239
75
21
194
230
63
29
200
228
54
34
211
216
40
47
221
204
35
59
227
199
25
68
236
181
19
84
240
167
15
92
241
234
180
20
79
239
175
15
94
246
155
10
109
246
149
10
118
247
129
9
136
248
113
10
150
244
103
12
162
243
85
17
181
237
76
24
189
232
63
28
204
223
47
40
214
214
41
48
222
207
31
167
232
76
27
188
225
65
37
198
216
56
45
208
210
44
54
219
197
36
68
222
184
30
76
232
174
20
90
237
163
20
104
239
149
15
114
245
137
11
130
242
123
17
141
242
111
15
154
241
97
30
192
221
65
41
198
213
53
46
212
207
41
59
219
193
36
68
225
185
25
78
235
170
21
94
237
159
20
106
242
148
12
117
244
132
15
133
241
121
15
143
241
107
14
158
240
94
22
168
225
201
26
65
235
186
23
75
239
178
15
88
244
160
9
107
247
148
9
115
247
134
9
132
248
116
9
151
245
106
12
156
242
92
15
176
238
75
21
187
233
66
28
198
225
51
36
213
214
41
47
130
8
137
248
110
10
155
244
99
11
164
244
86
17
181
237
68
24
194
231
61
31
200
227
50
37
215
213
40
49
221
205
32
57
229
195
22
74
237
177
19
86
241
168
13
97
244
153
9
122
19
137
244
115
12
147
245
104
12
162
240
89
20
173
235
80
23
185
232
64
34
198
221
55
42
207
215
45
48
217
204
36
62
223
189
30
75
231
184
22
82
236
166
18
102
240
150
16
110
241
226
192
31
68
232
183
20
81
237
171
20
94
240
160
15
107
245
142
12
122
246
131
13
133
243
119
12
148
243
102
16
161
238
92
23
171
234
79
26
190
227
63
33
198
218
55
43
208
212
44
177
230
69
33
200
221
54
40
208
211
47
50
215
204
35
58
228
190
26
74
232
180
24
81
238
168
15
97
242
155
14
110
243
144
13
121
246
128
12
138
244
114
14
149
240
104
18
162
238
89
22
187
228
68
32
194
222
58
37
206
217
48
50
216
202
38
59
223
195
30
69
231
181
23
87
234
167
18
95
241
158
13
108
243
140
14
126
244
129
12
136
247
115
11
151
242
100
17
163
232
185
18
85
240
165
14
99
244
158
11
108
247
141
10
128
248
124
9
140
248
114
9
154
245
96
12
172
243
83
17
179
239
71
21
193
231
57
30
205
221
48
40
214
216
38
49
225
202
30
67
153
8
118
249
132
9
133
247
125
10
142
246
107
12
165
243
89
16
173
238
83
20
183
234
65
26
201
225
54
35
207
219
46
42
220
210
32
54
228
197
28
66
234
188
20
78
242
171
13
102
19
143
241
112
18
154
240
96
18
170
236
83
27
179
227
74
34
191
223
59
38
204
212
50
51
210
203
42
59
222
194
31
70
227
179
27
84
234
170
20
95
241
158
17
108
242
143
17
119
240
213
197
37
62
225
189
29
76
230
175
25
88
235
166
19
99
243
152
14
115
242
138
16
124
243
126
12
138
245
112
16
154
239
100
21
162
238
87
22
178
232
74
31
188
222
66
38
199
218
51
193
225
53
35
212
216
38
47
223
203
33
57
228
196
25
68
238
181
16
83
242
170
13
91
244
157
10
112
249
136
8
125
248
128
8
136
246
112
10
157
244
93
14
165
241
89
18
180
237
72
14
177
239
77
21
185
235
67
25
198
227
52
36
209
219
45
44
217
213
35
54
228
196
28
68
233
186
20
76
238
176
15
95
245
155
13
107
247
147
9
118
247
130
7
139
247
114
10
149
239
168
16
100
241
148
16
115
242
139
13
125
246
125
10
144
243
109
15
154
242
98
16
166
242
83
22
183
230
72
29
190
225
61
32
202
218
51
46
212
206
43
57
220
201
33
65
227
186
27
83
164
14
105
244
149
13
115
244
137
13
126
245
122
10
144
243
109
16
153
239
98
19
169
237
81
22
183
230
71
31
192
223
60
38
207
216
46
47
215
204
41
56
221
197
30
67
234
182
23
88
17
153
241
102
18
164
237
87
21
180
233
70
29
190
225
64
36
201
218
51
44
215
209
40
56
218
197
35
65
229
189
23
78
236
175
20
89
237
164
17
101
244
149
12
116
244
139
13
129
239
208
210
41
53
220
198
32
67
227
182
27
79
233
178
20
89
239
161
17
107
242
145
15
118
245
136
11
129
246
119
13
147
242
107
14
156
242
95
15
170
238
81
25
180
231
70
30
193
228
57
206
212
38
50
225
202
28
64
232
186
22
78
238
180
17
87
242
163
12
105
245
148
9
114
247
136
7
133
248
116
10
147
246
107
11
159
246
92
15
175
240
75
21
188
235
66
29
203
220
96
65
150
246
111
15
167
242
86
18
183
236
68
25
193
229
61
31
202
224
49
39
216
212
39
51
221
202
31
60
231
191
19
75
240
178
16
88
241
171
13
97
246
152
9
117
249
138
9
124
242
161
14
110
243
141
15
123
242
130
16
134
246
115
13
149
242
103
19
160
236
92
21
173
234
76
28
186
224
69
36
193
218
57
42
209
209
44
55
214
197
38
63
222
179
84
57
46
110
223
167
93
235
167
63
46
70
109
232
145
14
120
247
131
12
132
243
117
17
145
240
106
17
159
240
90
21
173
232
82
29
183
228
70
32
196
221
56
44
204
209
50
53
214
202
37
61
225
190
32
84
17
173
240
84
19
178
234
71
23
197
229
55
33
206
220
48
40
215
215
37
51
226
197
28
64
232
191
23
70
238
178
16
88
244
162
11
104
245
152
10
111
246
167
204
127
11
146
245
109
17
61
30
203
223
47
45
222
157
223
200
28
64
230
195
23
70
238
177
18
90
242
164
14
99
246
152
9
117
247
134
8
133
248
125
8
141
248
108
9
159
243
89
15
172
242
82
18
183
238
67
214
195
32
66
229
186
25
79
235
173
22
95
238
161
16
103
244
146
13
121
243
131
14
132
245
121
10
144
244
104
15
161
239
92
19
171
237
81
20
185
225
215
211
61
40
204
214
47
46
214
244
124
12
136
243
113
15
151
236
198
235
85
22
174
232
79
28
187
228
62
35
203
218
53
43
209
209
45
51
220
200
32
64
227
189
28
75
232
179
20
86
242
163
15
101
242
154
14
111
239
154
12
118
245
133
12
130
243
126
14
142
242
108
14
160
239
92
20
167
234
84
25
182
230
67
31
197
221
59
41
203
212
50
48
215
205
34
57
223
212
215
185
26
78
237
171
14
92
242
156
69
233
179
22
88
236
164
18
99
234
195
242
141
13
128
243
126
13
138
243
116
11
152
244
98
17
166
237
85
22
178
236
76
24
189
228
63
36
199
217
54
43
210
212
42
52
219
198
35
75
23
191
232
64
29
199
226
55
33
211
218
41
47
220
206
34
57
228
197
27
69
234
181
19
83
239
169
16
93
243
160
10
108
246
140
9
127
245
148
241
118
8
150
246
99
13
168
244
91
19
77
25
189
233
61
30
204
225
51
39
211
188
208
209
33
53
230
196
23
69
234
186
19
80
240
173
13
94
246
156
11
108
246
148
10
118
249
129
8
140
248
115
10
149
246
103
13
163
243
82
216
186
30
77
233
178
22
89
238
161
21
102
239
152
15
114
245
137
13
129
243
122
15
140
242
112
14
153
243
96
19
167
234
86
28
176
230
99
188
64
37
199
214
54
49
208
205
44
53
218
242
133
16
129
244
121
13
142
243
108
15
159
121
163
234
87
25
179
231
74
30
192
222
64
40
199
213
53
46
211
205
41
59
219
192
36
70
225
185
27
79
235
171
20
94
236
156
20
104
237
140
8
132
249
117
10
149
245
107
11
158
244
91
15
176
239
74
22
188
232
67
27
196
225
52
37
212
215
41
46
219
208
35
54
227
196
22
103
17
78
241
174
15
90
243
163
10
106
248
144
55
231
190
24
72
236
182
20
80
241
170
14
103
21
113
246
138
10
123
247
130
8
137
247
112
11
155
245
101
11
164
244
89
15
180
237
68
23
192
232
62
30
201
225
48
39
215
213
39
59
33
198
221
55
42
208
213
47
46
215
205
36
63
224
189
30
73
231
180
21
83
237
166
19
99
238
153
15
110
244
143
11
126
246
125
15
79
15
149
244
104
13
162
242
89
20
178
235
78
29
98
21
173
234
78
25
189
227
70
34
194
219
60
33
44
48
218
203
37
59
223
194
30
68
230
183
21
82
239
169
19
92
240
160
16
104
245
143
11
121
245
131
14
132
243
120
13
149
242
97
225
182
24
81
238
169
17
98
242
155
14
111
241
144
11
121
245
128
12
139
245
116
15
147
239
102
16
164
239
86
21
181
232
77
27
171
45
199
220
52
42
212
211
44
52
216
201
36
62
226
240
141
14
123
245
132
10
136
245
115
14
151
242
105
166
97
16
171
237
78
24
185
230
69
33
192
223
58
34
206
216
47
49
214
203
40
59
222
195
31
68
230
181
25
85
235
168
19
95
237
119
8
155
246
96
14
170
241
83
18
180
237
72
22
196
229
56
33
207
221
47
39
213
215
37
49
226
200
30
64
233
190
23
68
234
202
242
166
13
102
245
151
9
111
246
141
9
128
248
117
41
221
211
38
55
226
200
27
61
233
189
18
78
241
192
235
166
13
98
244
152
9
115
249
136
9
131
248
124
10
140
246
107
10
161
242
92
15
171
239
81
21
184
235
65
26
201
227
54
44
41
203
212
50
51
211
201
41
59
222
192
30
72
228
179
30
86
233
170
20
96
241
155
14
110
241
143
16
121
243
132
12
136
247
112
165
107
18
157
238
96
21
170
237
81
26
184
227
72
38
105
17
162
239
88
22
175
231
78
30
186
224
66
34
206
89
206
209
48
55
212
197
41
62
225
191
29
74
230
174
26
86
235
166
19
98
241
151
15
113
242
138
16
123
243
126
12
138
244
108
234
170
13
96
245
156
10
110
249
138
7
127
247
130
10
135
246
113
11
155
245
95
13
167
243
86
16
181
236
69
24
197
227
59
31
66
36
212
215
38
48
224
203
31
60
230
192
24
68
235
241
161
12
102
246
150
9
118
247
131
8
136
248
120
9
79
9
156
243
90
15
175
238
79
19
183
235
68
24
198
226
53
35
209
217
47
42
217
210
35
52
228
196
26
67
234
187
21
77
235
105
14
167
240
83
22
182
231
71
28
190
226
60
32
202
220
50
46
210
206
41
58
221
201
32
66
229
185
27
82
234
174
21
90
166
88
244
150
14
119
243
131
14
128
246
125
13
141
244
108
35
205
217
50
45
210
209
43
55
223
197
29
67
231
187
77
178
23
85
239
166
16
102
244
149
14
114
242
140
13
127
244
121
11
142
244
108
16
154
238
99
19
170
236
83
24
184
231
75
39
45
215
206
39
56
219
198
33
63
229
188
22
77
238
172
21
90
240
164
16
100
245
150
11
117
245
135
14
128
244
123
12
144
244
180
241
97
18
165
235
85
24
178
232
70
30
193
223
61
42
112
14
153
243
96
17
169
237
83
24
178
233
74
25
191
221
205
216
51
46
211
211
43
51
220
201
33
67
226
185
27
79
233
174
21
88
240
161
17
107
239
145
15
119
244
136
11
129
245
115
239
146
10
118
247
137
7
132
247
116
10
149
247
101
11
160
245
94
13
175
240
78
20
187
233
69
26
197
229
53
35
210
216
40
114
39
54
225
203
27
64
233
185
21
83
238
170
16
88
241
233
181
20
79
241
171
14
98
246
154
10
114
247
145
9
105
14
137
247
110
11
156
245
101
14
164
242
85
17
183
236
68
26
194
228
63
32
205
222
48
38
218
212
38
51
222
204
32
61
228
135
0
133
255
117
0
149
255
106
3
159
254
89
4
182
250
70
11
192
241
62
17
205
236
46
26
220
226
35
36
226
216
27
45
47
60
244
192
9
74
251
178
5
85
255
166
0
104
255
146
49
240
199
15
66
245
187
8
77
251
175
1
95
255
155
13
128
0
125
255
129
0
141
255
106
0
160
255
96
2
168
255
82
4
184
246
64
14
200
239
55
20
209
234
42
30
223
219
29
54
244
104
11
158
245
97
11
171
241
80
18
187
235
70
26
195
229
57
32
208
220
44
46
214
208
37
52
224
203
28
62
232
186
24
99
18
92
241
166
13
101
246
147
9
120
247
130
10
132
243
211
213
39
48
223
205
30
61
233
190
22
71
235
182
18
74
18
97
247
152
10
114
246
143
9
120
247
124
9
142
246
111
12
152
243
102
14
170
241
80
19
185
236
69
26
192
229
60
32
207
84
236
176
20
89
239
165
17
97
242
151
12
115
246
135
11
128
243
127
14
137
245
112
14
157
240
96
20
165
234
89
25
178
233
174
226
60
37
203
217
54
45
211
207
41
54
224
197
32
71
152
14
117
244
134
12
133
244
122
12
142
246
109
12
159
223
175
236
83
25
180
234
71
25
194
225
59
39
202
214
51
46
213
208
40
53
221
197
33
71
225
183
26
78
235
175
20
92
240
150
48
34
199
222
52
42
212
210
43
57
218
196
33
63
228
190
26
77
233
172
22
92
239
166
18
103
243
149
15
118
242
135
15
130
174
130
245
111
13
156
242
96
17
168
237
85
20
177
239
74
17
171
236
84
25
180
230
71
29
195
224
58
39
205
214
102
201
41
56
222
199
29
66
231
185
25
78
234
175
19
91
243
158
15
103
243
148
15
115
243
135
11
130
245
121
11
144
243
111
10
246
125
10
133
248
117
10
152
246
98
14
168
240
87
17
177
237
74
24
195
230
59
31
203
222
52
40
211
215
39
49
225
201
30
61
32
69
234
185
18
81
241
169
13
97
246
154
11
107
243
225
196
28
64
233
186
19
80
237
170
15
95
244
160
11
68
11
121
248
129
8
135
248
120
9
145
246
105
12
164
242
86
17
174
239
80
20
185
235
63
26
200
227
54
34
208
218
44
43
218
79
231
180
27
83
231
170
23
92
239
161
14
107
242
145
14
122
241
133
15
131
243
120
12
146
242
107
21
157
237
96
21
170
233
69
167
71
33
189
219
61
41
203
216
49
47
214
205
42
64
142
11
129
246
124
15
140
241
114
16
151
240
99
15
174
82
176
230
79
31
183
225
67
35
197
218
54
46
208
204
48
55
216
200
36
63
227
187
30
77
229
175
24
86
236
164
16
100
243
144
62
22
190
232
59
29
205
221
49
39
213
216
40
46
222
204
30
62
231
189
23
74
236
185
18
82
242
166
12
103
246
149
11
113
245
188
248
128
8
143
246
107
11
154
246
100
11
166
242
83
18
191
232
65
28
195
227
56
33
208
219
39
46
222
211
213
201
29
61
234
192
20
77
238
175
15
90
244
163
13
99
245
150
9
121
247
135
8
127
247
124
9
143
247
104
12
163
243
93
23
243
142
14
120
243
131
11
134
245
115
13
150
242
107
19
160
237
90
20
176
235
76
27
186
225
69
34
199
220
52
44
213
210
45
54
195
69
224
192
29
70
234
180
20
84
238
168
17
93
239
228
180
23
82
236
171
17
96
238
153
16
112
243
142
170
136
10
134
245
116
14
150
241
104
16
162
241
92
18
174
236
78
26
185
228
68
31
195
226
56
38
206
213
47
52
213
205
38
56
223
68
224
194
31
75
228
177
24
82
236
172
17
95
239
154
15
113
242
143
11
122
247
129
12
140
243
112
15
152
242
102
16
162
241
87
23
75
30
185
227
69
31
196
224
54
39
208
214
47
54
134
10
137
245
114
14
148
241
107
17
160
237
90
20
68
24
187
228
70
33
194
219
57
40
210
211
43
51
217
202
38
59
224
194
27
69
233
181
22
83
236
169
20
93
241
158
12
110
246
135
83
16
172
240
77
21
190
233
68
28
197
228
56
31
209
218
39
46
221
206
33
53
225
200
26
66
236
185
18
82
241
175
15
90
242
161
12
93
10
119
247
134
10
130
246
124
9
144
246
103
30
206
222
48
39
212
217
40
46
221
205
31
71
39
72
235
182
19
78
240
171
13
98
245
153
12
113
246
144
9
122
248
127
7
141
247
109
10
154
246
99
10
166
242
82
18
183
236
70
32
241
149
17
113
243
140
12
126
245
125
14
140
241
114
16
149
241
99
17
168
237
86
25
176
227
77
32
189
226
61
36
201
215
55
50
208
204
87
181
34
64
227
187
31
78
229
173
24
89
236
231
170
22
91
238
160
15
104
241
146
16
124
132
127
243
124
13
142
244
108
17
157
238
98
21
165
236
84
23
181
230
69
33
189
220
63
42
202
215
49
48
214
203
41
61
219
191
33
70
226
54
220
205
33
56
226
198
28
65
234
188
18
81
239
170
15
93
243
163
12
107
245
143
9
126
247
125
10
135
247
118
10
151
246
99
14
168
238
127
233
78
17
186
234
64
28
203
223
50
42
119
10
148
246
99
13
168
242
89
18
174
212
177
232
64
29
204
223
51
37
210
216
42
46
220
207
31
59
230
193
23
67
234
187
19
80
241
168
12
98
246
154
10
107
247
144
8
124
248
119
102
14
156
241
93
19
172
235
86
26
180
229
71
30
195
224
55
39
204
214
51
48
214
206
36
56
227
194
29
69
229
183
25
80
236
174
16
91
239
195
229
149
13
116
243
136
12
133
246
117
38
210
208
44
53
217
198
36
62
222
199
230
179
24
88
235
163
18
99
242
153
12
112
244
137
14
128
243
124
11
137
246
112
14
156
241
95
17
167
238
86
18
178
236
71
26
191
225
62
45
240
158
17
102
243
150
11
117
245
132
13
135
244
120
12
144
245
107
12
159
240
90
19
171
236
82
21
183
232
68
29
194
223
59
41
203
216
49
44
214
212
225
192
30
74
227
184
26
77
233
239
165
17
97
240
156
12
112
237
196
236
126
14
133
242
116
14
151
242
98
17
166
237
91
24
175
230
75
26
190
226
59
36
201
216
53
44
212
209
40
54
224
198
32
64
228
188
28
72
232
39
207
222
46
41
214
212
39
48
223
203
27
62
234
191
23
72
236
182
17
86
243
164
12
103
246
152
10
112
246
139
7
128
249
121
9
146
247
113
10
150
245
164
230
83
18
184
235
69
28
96
15
169
240
79
21
193
190
200
228
59
32
204
225
45
40
217
210
38
53
222
201
31
60
232
189
21
76
237
174
17
91
243
164
12
101
247
149
9
120
248
132
8
131
248
123
8
143
247
100
108
15
148
243
103
16
160
237
96
23
170
233
80
25
185
228
66
35
193
216
60
42
205
211
46
51
217
200
38
65
221
189
31
74
230
180
21
85
235
165
21
97
234
155
96
58
34
116
239
133
57
216
188
52
41
80
112
217
179
24
83
237
169
20
98
238
154
19
107
242
144
13
121
244
129
13
134
240
118
16
147
240
103
15
162
239
89
24
172
231
81
29
185
227
66
34
196
218
59
52
241
177
17
85
242
169
12
101
247
147
10
117
247
140
9
129
248
123
9
146
246
104
10
157
244
96
12
171
241
77
20
190
234
66
25
194
231
58
31
208
220
45
44
217
208
36
61
215
194
134
115
158
224
151
11
123
247
125
8
143
248
110
10
155
244
100
13
164
241
82
18
184
234
70
25
192
229
60
30
207
221
45
42
217
211
38
50
224
203
28
61
234
189
20
76
238
177
17
84
239
33
191
226
65
35
198
218
53
43
211
210
39
53
221
199
35
64
227
190
26
73
235
176
19
86
238
163
17
100
242
151
12
115
245
137
11
128
244
127
15
137
243
112
14
155
242
99
20
168
230
178
231
69
27
194
226
60
37
203
216
51
45
213
208
40
52
221
196
33
68
228
182
25
75
235
176
21
91
240
156
17
109
242
150
13
118
247
133
10
134
244
116
13
146
244
105
14
157
242
88
115
10
139
245
111
15
155
242
101
16
165
241
87
18
177
236
73
28
190
226
63
33
198
222
52
43
209
209
42
57
218
198
33
63
227
190
26
77
233
173
24
90
237
164
18
100
243
149
14
118
197
28
70
231
185
26
79
235
175
19
90
242
161
14
104
242
150
15
112
244
136
10
130
246
121
12
145
242
108
16
156
239
94
18
174
236
79
24
182
228
72
31
194
223
55
39
209
214
48
57
233
196
24
65
234
186
18
81
242
169
14
94
245
161
11
104
246
144
8
125
248
127
9
134
247
117
9
150
245
97
13
170
241
86
17
177
238
74
23
193
231
61
30
202
224
51
37
211
217
42
9
138
247
117
10
146
246
103
11
164
242
87
17
176
239
79
20
187
234
64
25
200
225
52
37
210
218
43
43
219
209
33
59
230
195
26
68
235
187
19
80
240
170
13
99
244
153
11
108
242
31
181
228
75
32
189
223
63
38
202
215
50
48
209
204
44
60
219
196
33
68
230
183
27
83
231
170
22
91
239
160
15
106
243
143
16
120
241
134
15
131
245
121
13
146
242
106
19
155
233
186
223
65
35
198
218
53
46
207
206
49
57
215
201
36
63
226
185
30
77
230
175
24
89
238
163
15
102
241
150
16
115
241
138
14
127
245
123
13
142
242
111
18
152
239
99
20
166
238
81
131
10
124
248
123
8
141
247
115
9
151
247
101
12
168
243
80
17
181
239
75
23
191
232
59
30
204
221
49
39
211
215
39
46
223
204
30
63
231
190
23
72
236
185
18
85
242
167
12
103
188
19
79
241
174
15
90
243
165
12
101
245
149
9
120
247
133
8
129
247
122
9
148
245
101
12
165
243
93
16
173
239
80
20
190
232
62
29
199
225
55
35
209
218
41
45
223
206
32
66
221
202
38
59
227
195
27
70
234
181
23
81
236
171
18
93
244
157
12
108
244
145
13
121
242
134
11
136
245
114
13
148
242
105
19
160
238
89
21
178
235
74
27
185
226
67
36
198
219
54
13
154
241
104
16
161
242
91
17
174
236
78
25
185
228
68
29
195
225
54
39
207
211
46
52
215
203
38
57
225
195
28
73
231
175
25
87
236
169
17
96
243
153
15
114
243
138
14
123
239
24
175
236
79
25
182
231
69
28
196
225
55
41
205
213
47
48
215
208
37
57
223
193
30
75
228
180
24
82
236
169
18
95
239
152
16
113
243
140
12
122
247
128
12
140
243
111
14
152
239
192
220
57
40
208
212
43
50
218
203
39
59
223
193
27
69
235
180
21
86
236
169
19
93
242
158
13
110
247
141
11
124
244
132
13
133
244
116
12
151
243
102
18
161
236
91
22
176
234
71
153
10
104
246
147
10
118
248
138
9
128
247
122
8
147
246
104
13
157
244
97
14
172
240
78
20
189
232
67
29
196
227
55
34
210
218
41
46
222
205
35
55
227
199
26
64
237
185
18
83
172
14
99
244
153
11
113
246
144
10
122
246
125
7
141
247
111
10
153
245
99
10
166
242
83
19
182
235
70
24
192
232
59
30
206
224
46
41
217
212
38
49
223
206
30
58
232
190
22
83
213
207
46
53
218
200
35
64
224
186
32
77
228
178
23
87
238
165
18
101
239
150
17
113
244
140
12
126
246
124
13
139
240
113
17
149
241
99
15
167
236
85
25
176
227
76
31
188
225
64
16
161
238
99
21
165
235
86
22
179
230
70
32
188
220
62
41
201
214
49
47
213
202
43
61
219
191
35
69
229
183
25
82
235
169
22
97
236
158
16
106
243
144
14
122
243
130
15
133
237
15
164
244
92
14
172
241
79
18
187
235
61
28
199
227
55
33
208
221
43
44
219
206
34
58
226
200
27
64
234
187
19
82
239
170
15
94
244
162
12
105
247
143
10
124
248
126
9
136
244
212
214
41
44
221
207
28
59
231
192
25
67
234
189
19
81
241
167
14
97
244
157
12
104
247
145
9
124
248
127
9
143
247
117
10
152
244
100
13
169
241
82
18
180
237
75
23
191
232
57
166
16
92
241
162
15
100
242
152
14
112
247
136
9
129
246
122
14
139
242
111
16
155
242
94
18
168
236
85
25
180
230
70
31
195
224
56
39
204
214
50
48
214
206
37
56
225
194
30
70
152
13
113
242
135
14
129
243
125
12
136
245
112
14
155
241
95
18
166
237
87
20
179
236
72
27
192
225
63
37
200
220
53
42
211
210
41
55
219
196
34
67
226
191
25
76
233
173
21
101
208
218
50
43
212
209
40
55
220
194
34
66
226
189
25
75
234
174
21
93
237
160
17
102
243
150
11
116
245
133
14
133
243
120
14
142
245
107
12
158
241
91
19
173
238
82
22
184
233
71
18
168
237
90
24
176
232
74
26
190
226
59
36
200
215
55
44
211
209
41
54
222
199
31
66
227
189
27
76
235
178
18
89
243
162
15
101
241
153
13
113
246
136
10
131
245
122
15
140
235
11
143
247
114
11
150
244
98
13
169
241
79
18
178
237
74
23
191
231
58
31
206
222
48
41
213
212
39
48
224
205
28
64
235
188
24
71
237
183
17
84
243
163
10
104
247
150
10
112
246
222
197
29
61
231
188
21
77
238
174
17
90
242
164
12
101
245
148
9
121
248
132
8
132
249
123
8
146
247
104
12
163
243
93
14
171
241
79
19
187
233
62
28
198
227
55
33
209
220
43
172
22
85
235
168
22
96
237
157
16
107
244
144
14
121
243
130
16
133
243
118
13
145
244
103
16
159
237
95
24
170
233
80
26
185
228
67
35
193
218
59
43
205
212
47
52
218
201
37
65
142
12
123
245
128
15
135
242
117
16
148
240
103
15
161
239
90
25
173
230
81
29
185
228
66
35
198
218
58
47
204
208
46
51
217
200
36
64
223
187
32
76
230
179
23
87
239
165
18
108
201
231
59
29
205
223
46
42
216
213
39
48
222
206
29
61
231
191
21
76
238
179
17
84
242
168
12
101
246
146
10
118
248
139
9
128
248
122
9
146
246
104
11
158
244
94
13
172
241
83
17
187
235
71
25
191
229
60
31
207
219
45
41
217
210
39
51
223
203
29
61
235
188
20
78
237
180
16
85
243
165
12
103
247
148
9
116
247
139
9
129
247
121
8
146
247
105
11
156
236
13
123
244
133
14
135
244
115
12
151
243
101
18
163
237
91
21
175
234
73
27
191
226
64
36
197
219
53
43
212
209
41
53
220
199
37
63
226
188
27
73
234
177
19
88
238
167
18
99
239
227
183
26
77
235
175
17
92
238
156
17
108
242
148
13
117
246
133
11
134
244
117
14
146
243
107
12
158
242
91
17
173
235
80
24
184
232
69
28
196
224
57
42
206
212
48
48
213
207
39
183
28
73
229
177
24
87
236
169
18
97
242
153
14
113
242
137
13
124
245
128
11
138
246
111
14
154
242
100
16
163
239
88
20
178
235
74
29
192
224
64
34
199
224
51
42
211
208
44
56
136
11
132
246
120
13
145
242
109
18
154
238
95
18
173
235
79
25
181
227
73
31
196
221
55
39
207
214
45
50
213
203
39
57
226
194
27
70
233
182
24
81
236
171
17
92
242
157
11
115
185
238
79
21
190
232
60
28
201
226
54
35
209
218
42
45
222
206
33
57
228
198
26
65
236
185
18
81
243
169
14
93
244
160
10
107
246
144
7
128
248
127
9
134
248
119
10
152
245
101
27
204
224
52
38
211
216
45
41
218
209
32
57
230
195
26
67
234
187
20
79
239
171
14
98
243
156
10
105
246
146
9
124
248
124
9
140
248
115
8
150
246
101
12
167
241
80
18
183
228
15
117
241
137
13
127
247
124
12
142
242
109
18
152
240
98
20
165
238
84
24
178
230
74
33
187
224
63
38
202
215
51
47
211
203
43
59
219
196
33
69
230
182
26
83
232
170
22
92
236
232
173
23
90
239
162
16
101
241
150
16
116
241
137
13
127
245
125
11
142
244
111
18
151
238
99
18
166
238
83
23
181
229
74
34
188
222
62
36
201
215
51
48
207
202
44
60
220
195
34
196
31
59
229
196
26
68
234
187
20
79
241
169
15
98
244
154
10
107
247
144
8
123
248
124
8
139
249
115
9
149
246
102
12
167
242
84
17
183
238
76
22
191
232
60
29
204
223
48
43
122
8
147
245
103
12
166
242
91
17
172
240
79
20
189
233
63
28
201
225
56
35
208
218
41
45
223
206
33
57
229
198
26
66
234
186
19
81
243
170
13
93
243
161
12
106
247
144
7
130
156
233
103
26
164
229
89
31
172
223
81
37
184
218
66
42
198
210
58
52
203
203
49
59
214
194
38
71
222
182
36
80
225
173
28
90
233
160
22
105
233
149
24
115
233
137
20
129
237
122
48
206
200
47
63
211
192
41
70
220
183
35
82
226
166
32
96
230
159
25
103
235
147
22
120
233
132
23
130
236
123
21
143
236
107
24
158
230
96
27
167
230
86
31
180
224
73
39
189
209
