P2
100 68
255
143
200
195
195
195
195
195
195
195
195
195
195
195
193
170
184
196
195
186
175
168
167
174
182
161
167
156
163
149
127
98
176
197
196
195
195
195
196
199
169
85
91
101
184
196
195
195
195
195
195
195
195
195
195
195
195
195
195
195
195
195
195
195
195
195
195
195
195
195
195
195
195
195
195
195
195
177
126
153
195
196
195
195
195
195
195
195
195
195
195
195
195
195
195
195
195
195
195
186
51
80
90
190
196
195
195
195
195
195
195
195
195
195
195
195
195
195
195
195
195
195
195
195
195
195
195
195
195
196
199
150
145
149
187
188
196
196
193
111
46
96
200
196
195
195
195
195
195
195
195
195
195
195
195
195
195
195
195
195
195
195
195
195
195
195
195
195
195
195
195
195
195
195
195
195
195
196
197
156
83
170
196
195
195
195
195
195
195
195
195
195
195
195
195
195
195
195
195
195
187
196
184
46
141
197
195
195
195
195
195
195
195
195
195
195
195
195
195
195
195
195
195
195
195
195
195
195
195
195
195
196
194
177
128
153
150
167
21
123
92
198
196
195
195
195
195
195
195
195
195
195
195
195
195
195
195
195
195
195
195
195
195
195
195
195
195
195
195
195
195
195
195
195
195
195
195
195
196
195
188
128
97
197
196
195
195
195
195
195
195
195
195
195
195
195
195
195
195
195
196
195
196
198
147
125
199
195
195
195
195
195
195
195
195
195
195
195
195
195
195
195
195
195
195
195
195
195
195
195
195
195
195
196
197
187
115
59
78
86
190
200
197
195
195
195
195
195
195
195
195
195
195
195
195
195
195
195
195
195
195
195
195
195
195
195
196
195
195
195
195
195
195
195
195
195
195
195
195
195
196
196
159
100
163
198
195
195
195
195
195
195
195
195
195
195
195
195
195
195
195
195
195
195
198
125
128
202
195
195
195
195
195
195
195
195
195
195
195
195
195
195
195
195
195
195
195
195
195
195
195
195
195
195
205
91
78
76
145
166
133
139
150
145
154
186
200
195
195
195
195
195
195
195
195
195
195
195
195
195
195
195
195
195
195
176
173
195
195
195
195
195
195
195
195
195
195
195
195
195
195
195
196
168
110
139
200
195
195
195
195
195
195
195
195
195
195
195
195
195
195
195
195
195
195
199
148
105
173
198
195
195
195
195
195
195
195
195
195
195
195
195
195
195
195
195
195
195
195
195
195
197
173
196
80
93
73
201
195
196
200
170
144
146
151
123
125
181
193
196
195
195
195
195
195
195
195
195
195
195
195
195
195
195
195
113
156
195
195
195
195
195
195
195
195
195
195
195
195
195
195
195
195
196
179
130
145
197
195
195
195
195
195
195
195
195
195
195
195
195
195
195
195
195
195
195
195
198
146
78
194
196
195
195
195
195
195
195
195
195
195
195
195
195
195
195
195
195
195
195
197
114
65
70
112
95
202
195
195
195
195
195
195
196
197
195
183
144
115
181
195
196
195
195
195
195
195
195
195
195
195
195
195
195
195
94
143
195
195
195
195
195
195
195
195
195
195
195
195
195
195
195
195
195
195
193
153
149
195
196
195
195
195
195
195
195
195
195
195
195
195
195
195
195
195
195
195
195
196
191
63
185
196
195
195
195
195
195
195
195
195
195
195
195
195
195
195
195
195
195
178
9
103
101
135
197
195
195
195
195
195
195
195
195
195
196
196
194
182
149
117
170
197
195
195
195
195
195
195
195
195
195
195
195
195
119
123
196
195
195
195
195
195
195
196
201
196
195
195
195
195
195
195
195
195
196
196
147
145
178
196
195
195
195
195
195
195
195
195
195
195
195
195
195
195
195
195
195
195
196
108
1
124
195
195
195
195
195
195
195
195
195
195
195
195
195
195
195
195
195
103
31
65
111
197
195
195
195
195
195
195
195
195
195
195
195
195
195
196
190
178
141
155
168
199
198
198
198
195
195
195
195
195
195
195
157
98
196
195
195
195
195
198
185
97
84
192
195
195
195
195
195
195
195
195
195
195
197
187
151
174
200
195
195
195
195
195
195
195
195
195
195
195
195
195
195
195
195
195
195
201
66
155
195
195
195
195
195
195
195
195
195
195
195
195
195
195
195
196
205
41
49
93
198
195
195
195
195
195
195
195
195
195
195
195
195
195
195
195
195
196
190
128
150
145
137
142
158
195
195
195
195
195
195
195
196
47
199
195
195
201
177
122
93
159
197
196
195
195
195
195
195
195
195
195
195
195
195
196
196
135
135
173
199
196
195
195
195
195
195
195
195
195
195
195
195
195
195
195
195
195
172
90
196
195
195
195
195
195
195
195
195
195
195
195
195
195
195
197
82
12
118
93
195
195
195
195
195
195
195
195
195
195
195
195
195
195
195
195
195
195
197
148
189
167
156
179
195
196
195
195
195
195
195
195
207
47
202
197
185
99
63
144
198
195
195
195
195
195
195
195
195
195
195
195
195
195
195
195
196
194
174
134
127
186
197
195
195
195
195
196
195
195
195
195
195
195
195
195
195
195
199
90
196
195
195
195
195
195
195
195
195
195
195
195
195
195
197
113
3
91
129
196
195
195
195
195
195
195
195
195
195
195
195
195
195
195
195
195
195
195
196
190
131
196
195
163
146
180
196
195
195
195
195
195
200
100
202
88
84
117
194
196
195
195
195
195
195
195
195
195
195
195
195
195
195
195
195
195
195
196
196
184
161
127
121
198
195
195
196
128
195
195
195
195
195
195
195
195
195
195
195
182
92
197
195
195
195
195
195
195
195
195
195
195
195
195
188
0
97
143
198
195
195
195
195
195
195
195
195
195
195
195
195
195
195
195
195
195
195
195
195
196
147
175
196
196
185
153
170
198
195
195
195
195
197
123
78
109
186
198
196
195
195
195
195
195
195
195
195
195
195
195
195
195
195
195
195
195
195
195
195
196
195
188
153
111
166
185
51
110
195
195
195
195
195
195
195
195
195
195
195
198
80
190
195
195
195
195
195
195
195
195
195
195
195
186
35
113
86
201
195
195
195
195
195
195
195
195
195
195
195
195
195
195
195
195
195
195
195
195
195
195
197
106
195
195
196
195
172
158
188
197
195
195
171
45
189
200
195
195
195
195
195
195
195
195
195
195
195
195
195
195
195
195
195
195
195
195
195
195
195
195
195
196
199
150
35
54
51
101
195
195
195
195
195
195
195
195
195
195
195
196
178
144
197
195
195
195
195
195
195
195
195
195
200
39
63
59
185
195
195
195
195
195
195
195
195
195
195
195
195
195
195
195
195
195
195
195
195
195
195
195
196
160
160
196
195
195
197
178
135
151
190
201
67
147
196
195
195
195
195
195
195
195
195
195
195
195
195
195
195
195
195
195
195
195
195
195
195
195
195
196
200
179
99
38
110
81
77
178
195
195
195
195
195
195
195
195
195
195
195
195
196
66
195
195
195
195
195
195
195
195
195
196
118
27
104
166
196
195
195
196
196
195
195
195
195
195
195
195
195
195
195
195
195
195
195
195
195
195
195
195
195
197
145
199
195
195
195
195
194
168
122
108
91
201
195
195
195
195
195
195
195
195
195
195
195
195
195
195
195
195
195
195
195
195
195
195
195
196
196
182
45
19
125
68
163
197
185
150
195
195
195
195
195
195
195
195
195
195
195
195
196
196
130
196
195
195
195
195
195
195
195
206
37
100
106
196
195
195
200
90
188
196
195
195
195
195
195
195
195
195
195
195
195
195
195
195
195
195
195
195
195
195
194
196
195
195
195
195
196
196
193
71
178
196
195
195
195
195
195
195
195
195
195
195
195
195
195
195
195
195
195
195
195
195
195
196
203
156
46
93
82
66
142
192
196
199
94
113
195
195
195
195
195
195
195
195
195
195
195
195
195
197
92
195
195
195
195
195
195
195
195
84
97
83
202
195
195
195
196
189
68
127
202
195
195
195
195
195
195
195
195
195
195
195
195
195
195
195
195
195
195
195
195
195
195
195
195
195
195
198
77
169
197
195
195
195
195
195
195
195
195
195
195
195
195
195
195
195
195
195
195
195
195
197
203
94
31
76
96
86
186
201
197
197
178
89
164
197
195
195
195
195
195
197
158
184
199
195
195
195
195
195
202
102
199
195
195
195
195
195
201
52
57
203
195
195
195
195
195
196
200
112
98
192
196
195
195
195
195
195
195
195
195
195
195
195
195
195
195
195
195
195
195
195
195
195
195
195
196
169
86
194
195
195
195
195
195
195
195
195
195
195
195
195
195
195
195
195
195
195
197
203
192
129
54
81
114
118
189
201
195
195
202
143
94
184
196
195
195
195
195
195
195
196
169
64
111
183
198
196
195
195
196
145
191
195
195
195
195
197
74
83
191
196
197
197
198
197
197
197
197
198
176
69
167
195
196
195
195
195
195
195
195
195
195
195
195
195
195
195
195
195
195
195
195
195
195
195
190
41
174
196
195
195
195
195
195
195
195
195
195
195
195
195
195
195
195
196
196
184
146
43
3
45
122
128
202
196
195
195
197
189
100
135
201
195
195
195
195
195
195
195
195
195
196
195
194
113
46
148
196
196
195
185
122
195
195
196
202
60
122
175
196
160
122
79
66
75
94
82
113
165
199
107
43
37
155
197
195
195
195
195
195
195
195
195
195
195
195
195
195
195
195
195
195
195
195
203
69
119
196
195
195
195
195
195
195
195
195
195
195
195
195
195
195
195
195
204
55
37
104
90
100
142
196
196
195
195
195
197
133
88
184
195
195
195
195
195
195
195
195
195
195
195
195
195
196
197
184
141
116
75
111
115
71
120
85
69
43
68
37
128
125
160
158
185
184
182
172
163
159
147
149
124
88
65
28
48
189
204
196
196
195
195
195
195
195
195
195
195
195
195
195
195
195
195
195
109
91
195
195
195
195
195
195
195
195
195
195
195
195
195
195
195
195
196
203
76
99
138
182
198
198
197
195
195
195
204
128
91
168
195
196
195
195
195
195
195
195
195
195
195
195
195
195
196
199
204
178
104
64
93
156
142
135
166
167
177
29
110
158
199
198
196
170
91
164
196
196
197
197
197
197
198
194
191
190
170
116
91
106
82
128
163
193
207
204
201
199
199
198
196
195
195
195
196
208
71
173
195
195
195
195
195
195
195
195
195
195
195
195
195
195
195
197
183
91
107
132
200
195
195
195
195
195
199
173
101
151
201
196
195
195
195
195
195
195
195
195
195
196
197
201
195
181
157
118
82
96
159
188
200
196
199
162
196
195
138
75
133
196
186
191
195
195
108
149
189
195
195
195
195
195
195
195
195
195
195
197
201
200
158
91
47
20
24
53
87
105
95
111
150
186
200
196
196
56
139
198
195
195
195
195
195
195
195
195
195
195
195
195
195
196
198
143
76
80
200
198
195
195
196
200
184
165
120
115
196
196
195
195
195
195
195
195
195
195
195
195
189
188
135
43
54
93
117
124
192
196
195
195
195
195
196
151
196
203
73
121
196
195
201
166
196
195
197
145
195
196
196
195
196
195
195
195
195
195
195
195
195
195
195
197
198
197
164
153
168
173
152
106
52
1
63
171
191
82
185
195
195
195
195
195
195
195
195
195
195
195
195
196
191
167
40
86
112
198
196
196
193
189
165
67
80
133
192
196
195
195
195
195
195
195
195
195
195
195
196
161
99
121
148
173
189
192
196
196
196
195
195
195
195
196
141
49
196
67
83
160
195
195
196
152
200
195
196
135
199
175
137
195
201
164
195
195
195
195
195
195
195
195
195
195
195
196
196
196
196
196
196
195
193
191
150
58
15
123
199
195
195
195
195
195
195
195
195
195
195
195
202
142
83
87
100
193
199
202
152
87
85
133
173
193
196
196
196
195
195
195
195
195
195
195
195
195
196
200
120
197
185
198
197
196
195
195
195
195
197
195
195
195
195
196
156
163
168
40
67
203
195
195
195
165
188
195
195
134
199
170
48
196
201
46
200
195
195
195
195
195
195
195
195
195
195
195
195
195
195
195
195
195
195
195
197
196
177
39
99
208
196
195
195
196
198
199
155
198
207
142
78
75
103
114
103
87
120
141
159
186
200
198
196
195
195
195
195
195
195
195
195
195
195
195
196
205
141
33
56
195
195
195
195
195
195
195
195
197
174
198
195
195
195
196
150
204
94
114
100
200
195
195
195
171
186
196
193
177
196
201
128
195
196
121
196
195
195
195
195
195
195
195
195
195
195
195
195
195
195
195
195
195
195
195
195
195
196
206
107
7
124
200
176
130
116
122
98
139
68
88
124
117
150
178
192
205
200
196
195
195
195
195
195
195
195
195
195
195
195
195
196
197
198
185
111
28
43
105
154
195
195
195
195
195
195
195
195
194
179
177
196
195
195
195
154
187
45
84
188
195
195
195
195
169
186
193
136
196
195
197
164
196
195
138
201
195
195
195
195
195
195
195
195
195
195
195
195
195
195
195
195
195
195
195
195
195
195
195
198
162
28
82
39
50
68
61
130
86
99
159
196
195
195
195
195
195
195
195
195
195
195
195
195
195
195
195
195
196
194
176
156
147
120
0
40
111
115
201
198
195
195
195
195
195
195
195
195
196
159
172
199
196
196
195
200
77
55
92
200
195
195
195
195
199
159
151
195
196
195
196
191
168
196
143
201
195
195
195
195
195
195
195
195
195
195
195
195
195
195
195
195
195
195
195
195
195
195
196
196
196
172
44
49
59
78
97
100
87
184
196
195
195
195
195
195
195
195
195
195
195
195
195
195
195
195
195
196
190
99
165
196
48
9
117
67
200
196
185
59
195
195
195
195
195
195
193
152
153
157
147
108
141
194
195
202
65
123
112
199
195
195
195
195
199
123
186
195
195
195
195
196
144
195
145
201
195
195
195
195
195
195
195
195
195
195
195
195
195
195
195
195
195
195
195
195
195
195
148
196
200
95
57
63
78
95
68
82
160
183
189
195
195
195
195
195
195
195
195
195
195
195
195
195
195
195
196
180
162
206
100
11
83
82
168
202
179
33
71
119
195
195
195
195
195
195
195
195
169
198
147
139
163
199
195
185
19
51
90
186
173
195
195
195
200
137
196
195
195
195
195
196
172
193
162
197
195
195
195
195
195
195
195
195
195
195
195
195
195
195
195
195
195
195
195
195
195
195
141
198
200
88
79
87
101
102
129
144
181
171
178
195
195
195
195
195
195
195
195
195
195
195
195
195
195
197
175
155
100
5
29
84
130
195
104
86
99
176
176
201
195
195
195
195
195
195
195
196
200
156
167
198
182
140
193
143
76
32
117
162
130
198
195
199
127
196
195
195
195
179
184
195
196
186
156
199
195
195
195
195
195
195
195
195
195
195
195
195
195
195
195
195
195
195
195
197
197
180
184
152
157
118
106
112
84
90
157
178
173
143
183
195
196
195
195
195
195
195
195
197
199
195
186
178
183
165
160
174
26
86
106
125
115
25
111
170
199
195
200
147
195
195
195
195
195
195
195
195
195
196
203
45
134
172
139
78
113
3
106
204
89
174
196
139
177
196
195
195
197
54
117
201
195
155
146
201
195
195
195
195
195
195
195
195
195
195
195
195
195
195
195
195
195
195
196
161
97
84
92
160
88
110
140
145
56
136
178
167
145
114
192
186
183
190
193
195
196
191
189
151
93
103
120
140
124
184
195
171
104
22
49
77
128
177
198
195
195
196
119
187
195
195
195
195
195
195
196
197
195
195
184
46
196
194
134
48
73
18
126
202
149
114
98
191
143
128
197
195
206
84
72
200
196
149
139
200
195
195
195
195
195
195
195
195
195
195
195
195
195
195
195
195
195
195
161
129
169
163
128
121
161
197
191
173
68
167
149
129
111
84
132
142
133
134
104
63
85
102
149
170
203
201
158
139
85
54
64
87
109
133
177
194
195
196
195
195
196
143
186
198
195
195
195
195
195
203
111
96
196
195
182
45
196
195
87
82
107
83
174
157
163
154
188
131
185
198
195
196
78
67
155
157
197
195
103
201
195
195
195
195
195
195
195
195
195
195
195
195
195
195
195
195
195
198
129
98
100
149
119
79
141
110
135
184
82
137
101
125
167
61
191
197
194
181
122
174
184
177
162
147
124
142
156
101
153
178
190
149
113
200
184
199
196
201
205
199
162
60
76
105
195
195
195
195
180
96
104
199
196
195
188
62
196
197
44
112
105
95
191
203
101
180
118
196
195
200
185
200
60
126
178
194
166
202
119
200
195
195
195
198
192
195
195
195
195
196
196
195
195
195
195
195
195
190
0
107
120
198
194
52
188
172
163
115
101
104
167
200
200
124
80
195
147
98
202
198
202
202
165
140
134
110
68
99
154
197
196
190
108
181
187
114
124
108
104
105
141
150
205
207
195
195
196
178
45
104
206
195
195
195
193
64
196
197
39
94
104
157
162
161
62
160
118
193
189
127
173
93
76
131
183
196
197
179
149
196
195
195
196
153
170
195
195
195
195
182
182
194
196
195
195
195
196
161
134
112
143
196
122
75
113
187
157
75
110
110
161
191
168
160
57
102
88
159
164
150
72
33
89
125
170
203
199
199
197
196
197
190
163
94
87
168
170
201
197
195
194
132
197
195
195
196
195
60
101
202
195
195
195
195
167
75
196
99
85
100
40
182
196
201
144
102
137
134
107
193
174
100
182
175
151
193
195
183
173
145
196
195
201
156
179
197
195
195
195
195
196
160
190
195
196
196
195
89
114
162
175
192
149
144
125
125
196
75
130
106
167
188
196
193
76
84
106
103
85
121
144
183
196
196
195
195
195
195
196
179
124
123
173
147
160
157
196
177
196
195
197
117
197
195
196
190
69
137
196
195
195
195
195
195
133
119
196
30
110
42
98
196
195
196
114
168
79
67
147
104
43
66
120
127
134
187
139
199
197
135
203
199
96
152
188
196
196
198
198
197
195
196
187
157
196
196
155
144
164
203
65
68
86
86
144
116
150
100
149
122
155
202
148
132
89
88
52
139
202
196
184
161
168
173
80
8
150
175
178
182
191
197
197
202
98
186
156
177
191
195
196
150
194
195
168
90
159
197
195
195
187
195
195
195
129
118
176
18
109
36
122
195
204
19
94
154
190
145
197
153
92
196
130
153
106
42
129
105
194
173
135
130
148
171
192
163
167
171
173
179
196
195
195
198
174
155
131
112
138
121
71
75
74
90
152
133
113
99
122
106
115
88
62
88
82
154
29
128
146
149
143
147
114
148
200
201
197
196
195
197
193
156
164
147
135
136
182
173
185
198
199
201
166
162
64
162
195
195
195
198
149
177
197
198
105
133
165
7
116
44
160
197
110
109
130
197
196
146
175
55
97
195
108
186
55
84
125
176
146
128
76
101
141
164
162
200
199
197
196
196
195
195
195
188
148
161
166
101
102
110
171
91
73
97
152
189
185
62
86
116
52
104
140
117
103
173
106
93
144
171
128
193
202
196
195
196
200
182
196
184
152
167
111
99
155
153
8
99
133
163
148
147
169
87
148
195
195
195
195
195
196
155
102
184
78
126
196
11
82
65
197
143
121
192
194
196
191
191
145
59
142
187
80
93
114
140
190
163
195
174
144
194
103
105
98
180
195
195
195
195
195
195
199
110
178
165
166
98
136
147
89
111
100
104
132
179
154
34
147
101
41
108
103
111
172
183
126
94
117
132
192
122
193
195
190
158
81
183
196
195
197
126
194
174
126
6
107
187
175
157
186
182
177
168
196
195
195
195
195
195
196
196
150
200
68
134
197
8
110
87
199
130
161
197
171
137
196
202
86
119
118
190
26
118
94
192
196
197
153
195
126
156
114
179
196
197
199
195
195
195
195
195
196
187
125
197
157
63
95
196
184
197
105
71
123
180
160
67
126
88
62
126
159
141
172
190
40
152
165
153
123
110
121
158
164
178
192
196
195
195
196
196
119
170
14
116
133
147
163
199
155
196
196
160
195
195
195
195
191
145
102
107
124
118
54
141
172
5
116
75
116
116
175
207
52
96
140
67
67
182
167
129
97
67
118
169
194
157
158
180
119
160
173
118
163
75
134
196
195
195
195
195
195
159
157
133
109
139
194
195
195
193
64
119
184
177
132
88
86
90
125
63
173
175
202
122
100
131
174
201
130
96
114
120
169
167
198
196
195
195
196
205
74
38
110
154
197
184
187
187
70
137
199
149
195
195
195
195
186
176
195
203
159
154
53
93
118
13
98
131
111
174
153
110
61
193
130
76
119
201
203
101
75
116
122
129
130
192
90
113
127
81
131
137
152
165
198
195
195
195
195
195
205
99
139
112
123
195
195
199
145
70
106
148
199
161
204
90
70
126
57
129
101
135
89
73
60
93
181
194
84
164
64
124
120
33
171
168
196
196
186
24
62
116
152
181
194
197
176
150
70
54
139
153
195
195
195
195
195
195
196
179
169
207
47
126
170
27
94
118
101
104
188
58
129
190
12
63
165
142
94
134
103
174
160
134
194
23
141
202
140
85
178
160
140
146
196
195
195
195
196
196
111
193
114
95
198
185
176
111
117
192
85
197
144
133
141
93
23
157
143
123
138
157
181
131
86
62
132
16
65
186
46
18
65
78
72
192
196
190
24
78
88
175
176
137
149
195
195
180
94
161
191
134
195
195
195
195
195
196
187
126
197
203
77
163
141
55
131
119
97
92
62
108
203
91
131
173
175
146
200
195
110
173
156
200
196
192
126
202
131
71
80
198
180
145
192
196
196
196
189
52
189
162
165
195
195
176
196
154
199
90
178
196
195
197
102
128
15
148
97
139
196
196
198
155
180
115
135
90
73
98
118
153
104
42
117
196
162
69
107
173
162
160
183
158
176
173
196
196
187
148
194
139
195
195
195
195
195
167
148
163
142
118
52
110
8
61
136
188
90
108
61
99
127
50
95
140
131
172
196
198
84
198
144
203
199
196
200
70
155
88
182
168
196
176
137
193
195
185
82
114
169
193
196
195
196
197
198
181
98
197
178
198
195
191
64
96
37
120
119
197
195
195
179
142
167
187
112
153
174
167
115
91
38
128
65
52
86
120
181
189
194
194
190
194
187
42
121
125
117
64
152
123
195
195
195
195
198
158
65
9
172
214
30
122
44
54
137
79
106
20
101
174
94
103
196
202
196
154
142
82
21
158
126
109
101
134
157
16
141
71
148
179
197
192
131
189
164
117
164
140
197
195
197
199
155
156
157
124
173
84
164
67
174
93
140
186
58
82
143
171
196
198
147
209
197
196
134
179
185
175
176
30
57
35
76
149
184
147
120
110
138
138
125
138
154
46
61
188
128
116
88
113
195
195
195
195
200
109
156
120
196
193
48
73
75
47
140
179
35
60
89
113
71
130
131
133
129
169
113
56
39
57
67
51
3
129
208
146
81
192
188
139
189
196
176
9
93
80
201
198
200
175
153
137
188
199
198
198
196
169
200
124
91
72
183
202
92
95
105
196
162
206
91
107
196
195
159
176
185
137
18
13
71
126
145
195
195
196
202
200
164
158
174
174
151
143
8
114
61
67
126
112
195
195
195
196
173
112
198
172
190
183
38
68
147
47
149
113
82
113
175
75
82
163
170
178
110
59
24
11
19
62
84
119
107
150
160
139
161
177
80
197
156
190
196
149
37
118
188
124
110
160
200
195
195
195
195
195
196
192
131
153
146
192
176
132
118
50
97
145
142
115
93
184
195
195
193
168
160
8
39
117
135
140
197
195
195
195
195
195
195
195
195
195
196
197
40
108
188
199
198
141
195
195
198
149
122
198
195
196
196
111
31
91
182
69
153
53
181
183
17
66
20
27
45
78
86
94
81
70
100
117
114
61
176
199
172
81
114
191
137
138
201
40
196
63
87
135
122
141
194
196
195
195
195
195
195
195
195
11
180
169
136
196
197
120
84
76
131
152
197
74
145
134
196
195
204
39
26
118
138
156
158
197
195
195
195
197
195
195
195
195
195
196
173
102
42
85
181
196
188
167
196
197
35
0
159
195
195
195
195
71
126
166
129
90
77
67
55
44
110
70
102
151
183
158
174
149
84
107
88
96
160
79
114
49
108
152
163
164
150
67
42
114
114
144
129
123
181
197
195
195
195
195
195
195
195
196
174
173
205
72
181
176
149
179
96
76
161
98
48
76
89
142
142
152
21
79
87
160
138
131
184
195
195
195
194
124
196
195
195
195
200
102
46
108
168
18
199
182
190
141
169
118
111
115
198
195
196
166
119
67
96
45
7
110
118
72
64
117
152
175
173
202
195
198
131
138
66
183
91
104
115
92
165
61
166
154
141
168
201
211
101
124
147
114
176
174
164
196
196
196
195
195
195
195
195
196
196
197
88
86
133
173
149
161
55
83
173
103
16
144
146
202
180
49
88
72
113
144
94
17
124
198
195
202
120
203
195
195
195
194
118
27
104
197
204
42
111
196
196
194
131
195
199
197
195
195
191
110
74
107
70
76
0
122
69
98
147
194
196
195
188
136
189
183
152
101
120
98
69
102
153
131
196
207
143
179
201
178
86
140
36
187
99
133
181
186
123
197
177
195
199
196
195
195
193
183
181
168
175
143
123
94
196
197
76
109
113
166
21
140
142
96
42
113
27
140
204
189
183
51
0
140
175
136
165
195
195
195
200
87
177
204
199
188
172
88
32
196
196
195
196
196
195
194
194
194
189
59
60
18
23
91
1
114
63
139
201
195
195
195
195
197
153
0
118
62
101
56
13
140
164
149
196
196
196
170
156
185
48
75
124
186
178
105
185
164
121
121
146
93
14
189
195
195
178
191
197
141
132
181
131
140
196
196
86
118
184
115
35
153
36
110
118
22
86
203
195
196
196
180
47
4
50
167
196
195
195
196
137
187
194
191
102
57
119
141
0
105
196
195
172
92
51
86
108
107
113
68
127
161
183
187
11
98
154
153
196
195
195
195
195
195
196
183
100
112
148
177
95
140
95
139
141
147
141
140
113
131
84
105
143
190
187
126
154
73
160
79
77
87
1
190
196
199
184
138
144
54
156
135
169
187
187
115
22
130
127
144
17
37
109
179
18
122
75
203
195
195
195
196
193
72
4
124
199
195
196
197
137
91
99
126
121
152
182
191
73
10
178
196
76
90
102
110
134
148
165
196
198
196
196
123
3
111
122
202
195
195
195
195
195
195
199
154
103
133
127
125
115
202
141
155
198
196
203
138
199
162
119
98
110
131
152
149
88
30
100
125
125
151
111
107
103
144
116
159
108
82
135
125
121
141
117
143
10
163
203
54
48
91
146
59
100
134
94
204
195
195
195
195
195
197
99
21
125
200
138
127
106
151
173
189
199
198
197
185
166
4
142
197
203
204
203
201
197
195
195
195
195
199
129
197
5
114
154
196
195
195
195
195
199
162
141
132
196
61
117
102
115
130
142
161
174
197
146
201
185
156
111
113
135
106
171
182
123
138
44
130
139
147
159
67
113
125
145
174
107
109
201
199
199
136
105
94
33
170
53
66
111
90
52
89
176
201
140
149
198
196
195
195
195
195
199
131
4
64
141
182
171
198
195
196
172
164
189
182
187
7
79
195
195
195
195
195
195
195
195
196
197
119
200
189
0
117
162
195
195
195
195
198
98
168
163
192
141
87
96
105
117
132
148
168
127
197
196
195
198
70
192
111
203
103
157
98
146
170
71
97
162
131
88
84
109
192
197
142
77
134
80
141
191
85
174
98
39
9
88
53
89
77
64
137
186
186
182
106
104
183
185
186
185
184
189
106
119
16
137
196
169
196
195
196
131
159
198
185
193
17
115
193
195
195
195
195
195
195
195
198
113
182
196
193
0
98
177
195
195
195
196
129
170
197
127
165
86
93
102
111
125
138
153
170
184
168
197
195
195
193
198
132
178
144
102
192
195
184
193
195
192
82
106
84
195
160
107
72
100
149
161
121
85
137
178
56
14
118
64
24
37
51
55
67
92
120
145
149
139
144
148
160
161
148
141
95
155
185
18
82
176
196
195
190
154
196
159
202
176
20
99
196
197
195
195
195
195
196
181
132
197
160
195
191
0
112
180
195
196
196
124
145
169
181
122
105
97
103
109
123
134
147
162
178
182
178
58
202
195
195
199
160
153
160
150
166
197
196
195
195
196
157
118
27
174
188
62
147
178
78
58
66
80
92
111
123
138
146
118
104
72
128
142
124
121
148
179
186
144
189
84
167
185
180
182
159
129
95
118
2
52
197
199
150
149
130
83
166
143
22
35
63
125
183
200
196
195
195
197
199
160
177
202
194
0
118
180
169
139
138
166
174
122
105
68
105
107
114
123
124
132
159
171
186
173
175
123
193
195
195
197
159
198
194
196
183
196
195
195
195
196
161
138
82
9
128
86
130
49
53
58
67
78
93
109
129
155
147
148
120
123
155
142
55
147
191
177
181
195
151
180
126
111
164
128
54
170
177
124
80
1
86
160
202
161
134
185
172
39
144
68
18
133
94
109
161
186
179
175
172
135
114
71
36
0
124
46
76
130
40
42
62
97
121
111
124
123
129
137
84
87
166
184
181
163
173
171
138
197
196
197
145
200
195
196
159
191
195
195
195
197
178
118
109
63
13
43
62
53
54
62
71
82
95
113
131
151
179
110
165
108
117
156
142
108
168
151
125
114
131
66
93
189
147
89
109
108
127
171
187
47
0
58
111
36
79
106
31
100
144
169
96
140
186
147
110
78
114
119
50
91
144
167
166
0
120
32
57
77
48
163
198
191
117
107
130
138
143
145
37
126
183
182
165
141
102
88
143
148
186
194
136
200
195
196
196
196
196
196
196
196
115
53
68
135
38
107
61
59
64
70
79
90
104
120
137
156
178
153
121
148
144
132
160
59
100
131
143
140
121
134
126
143
131
105
194
182
164
135
136
76
25
3
160
53
150
96
79
161
195
191
174
61
7
29
61
158
136
98
167
203
160
77
44
2
109
133
194
40
78
124
206
101
99
190
145
165
162
102
30
99
117
131
119
83
83
99
106
103
96
93
66
68
75
87
127
134
141
129
142
164
80
101
93
135
98
96
69
69
73
80
89
100
114
129
146
162
183
176
89
176
104
162
163
100
106
70
108
120
54
156
169
181
111
186
191
131
128
88
40
102
100
3
25
182
152
43
154
177
143
101
126
102
87
40
0
24
72
103
54
52
80
102
106
14
96
171
205
0
113
95
85
168
198
141
72
66
95
115
64
122
102
83
82
89
87
126
139
129
125
146
133
127
132
129
113
112
135
178
194
163
138
177
177
111
172
119
83
82
86
92
102
115
92
142
156
173
188
168
78
98
127
145
151
11
66
142
88
80
179
126
143
131
156
177
164
150
128
91
85
138
181
129
2
122
60
130
123
181
195
169
149
