P2
100 75
255
146
21
117
235
127
18
129
234
118
22
139
232
103
22
155
229
90
27
165
223
83
32
177
220
67
39
192
210
58
46
197
204
51
54
208
195
38
64
215
183
36
74
220
174
28
83
229
161
23
97
178
28
83
224
159
28
96
229
153
21
105
233
139
21
122
233
124
20
132
233
113
19
145
232
100
22
159
228
89
27
167
226
79
30
181
219
66
39
188
209
59
44
199
206
49
52
209
192
42
74
25
193
226
54
30
200
219
46
37
215
210
34
50
224
194
28
60
230
187
21
71
237
170
14
91
241
157
11
96
244
147
8
113
246
128
8
132
245
117
8
139
245
103
10
160
243
83
15
172
235
173
236
72
21
190
228
54
29
202
220
48
35
209
213
37
47
224
198
25
59
228
191
23
66
234
178
15
83
243
161
12
95
244
153
9
107
247
134
6
124
247
120
8
138
245
109
10
150
242
85
218
174
22
80
234
166
15
93
240
151
15
108
239
138
12
119
244
125
10
135
241
112
15
146
237
101
15
159
238
86
20
171
228
78
28
180
221
64
32
196
216
50
43
204
203
45
53
213
195
36
12
119
240
130
12
129
241
117
10
143
239
103
17
154
234
91
18
168
234
76
24
181
223
69
34
190
216
54
37
203
209
46
49
210
196
38
59
220
189
28
69
230
176
21
82
232
162
20
91
231
128
9
138
246
103
10
155
243
92
14
164
240
79
18
180
232
62
23
192
225
55
31
204
219
43
39
217
207
32
52
221
197
27
60
230
187
17
74
239
170
13
85
242
164
9
97
246
144
7
114
203
25
59
229
187
22
70
235
178
17
81
241
161
11
101
243
145
9
107
246
136
7
125
245
115
9
142
245
105
8
150
245
92
11
168
239
76
17
180
233
67
21
192
229
52
31
207
217
44
50
35
204
213
46
47
208
204
37
52
221
194
31
65
226
178
25
77
234
169
17
89
239
154
14
107
239
138
11
117
244
130
10
132
244
111
13
148
240
100
13
157
240
91
15
170
233
74
24
181
225
154
235
85
18
173
232
71
25
185
223
65
33
193
218
49
41
210
208
39
50
214
197
33
58
225
188
21
72
231
175
19
83
236
163
14
95
243
150
9
110
242
135
12
119
242
122
10
136
244
103
226
169
19
86
239
158
10
101
244
141
11
114
242
134
12
125
244
116
10
146
241
99
16
154
236
92
18
168
233
74
23
183
226
65
31
191
220
54
37
206
211
43
47
213
200
37
56
220
191
29
14
109
241
140
11
118
244
125
10
137
242
107
14
148
241
97
13
160
239
82
18
176
232
72
27
185
225
61
26
196
218
49
42
208
205
42
47
215
199
32
58
224
185
26
74
229
171
20
82
233
107
10
159
243
83
14
176
236
70
19
184
233
61
24
198
225
47
35
209
210
40
45
217
206
31
53
227
191
22
70
233
179
18
77
239
168
13
94
243
148
10
106
246
139
8
117
247
123
7
135
214
34
44
219
205
33
52
223
196
24
64
235
182
16
78
238
168
12
86
241
158
8
105
246
138
8
118
247
130
9
129
246
112
8
148
243
95
11
157
240
86
15
173
236
70
21
190
229
57
36
43
209
204
43
55
213
194
33
63
224
186
25
74
230
170
22
88
233
160
15
98
240
147
11
115
239
131
14
124
241
121
10
139
243
106
14
154
234
95
19
161
233
80
22
178
228
70
28
186
216
144
239
96
15
164
234
82
24
174
227
73
29
186
224
60
35
199
213
52
45
204
200
41
52
218
194
30
65
223
180
27
78
229
169
18
87
238
158
14
103
237
142
14
113
242
133
10
128
243
111
237
157
9
98
243
146
9
116
248
127
7
132
247
115
9
143
245
101
10
161
241
83
15
175
236
75
18
183
232
59
28
201
221
50
35
206
212
40
42
218
205
27
56
229
192
23
61
233
184
20
15
93
242
156
10
101
245
141
8
122
247
123
7
130
245
113
7
148
244
96
12
164
239
84
13
173
238
71
19
188
230
57
28
201
220
50
33
209
214
38
44
220
200
28
57
226
188
24
64
231
93
17
172
234
72
22
185
225
63
31
194
219
52
36
206
210
43
50
213
197
34
59
223
190
27
68
230
173
23
86
233
160
17
93
240
150
11
110
243
133
12
124
241
123
9
136
245
107
10
150
220
51
38
201
212
47
44
211
205
34
55
224
192
27
66
228
179
22
76
236
169
14
92
239
154
11
103
241
144
11
114
245
127
8
132
243
114
12
143
239
105
14
157
238
85
18
170
231
77
34
48
218
199
31
61
222
189
28
68
231
177
17
81
239
163
15
94
239
154
13
105
243
136
8
122
244
122
12
130
241
113
12
148
240
95
14
164
236
83
22
171
230
73
26
189
224
59
34
196
213
141
241
103
10
156
239
90
17
168
235
78
19
178
231
66
27
194
220
56
36
201
213
45
43
211
203
37
56
221
189
30
68
228
180
22
77
236
166
17
96
236
150
14
104
241
141
10
119
243
118
239
134
7
123
246
124
7
137
246
104
9
154
243
92
11
163
242
81
16
180
234
61
25
192
226
55
27
201
221
44
39
215
208
34
51
220
196
28
56
230
187
19
74
236
171
15
88
240
163
14
21
75
235
176
16
80
240
161
9
100
245
146
9
106
245
137
8
126
246
119
7
142
245
105
11
152
243
93
12
170
238
74
18
179
231
66
23
192
227
51
32
208
215
41
41
214
207
33
48
224
88
23
179
228
67
30
190
218
57
39
199
210
47
45
211
201
36
58
219
187
33
71
225
179
23
81
235
165
18
92
235
151
16
106
240
141
10
118
244
125
13
132
238
114
13
144
240
101
14
158
225
63
34
190
214
57
42
202
209
43
48
214
196
36
62
219
187
30
70
230
177
20
85
234
161
18
96
235
149
13
107
243
138
11
123
240
122
14
134
240
112
14
148
241
97
15
161
233
87
30
54
229
190
20
69
232
180
16
77
240
167
11
95
246
148
8
107
246
140
8
121
246
123
7
139
246
104
10
149
243
99
13
163
240
79
17
180
234
68
22
189
227
57
30
204
219
42
41
214
208
125
247
118
7
145
245
100
11
156
244
91
11
169
238
74
18
187
231
61
24
194
224
55
28
205
218
40
42
215
206
34
50
223
198
26
60
233
181
18
78
236
169
14
87
242
158
11
102
246
133
236
118
11
140
243
108
10
151
243
93
15
166
235
82
20
175
232
70
23
191
221
57
34
200
213
48
40
210
207
38
51
219
193
32
66
225
180
24
71
233
173
19
89
237
153
15
105
239
145
14
29
63
224
187
23
72
235
174
18
84
235
161
15
95
240
148
10
113
243
133
9
124
242
122
12
136
243
107
12
153
239
94
17
163
232
84
21
176
229
65
28
192
222
57
37
200
212
47
43
211
78
25
186
222
55
34
201
215
47
44
208
205
40
51
220
197
27
65
229
181
23
75
231
174
17
87
240
158
13
100
241
145
12
111
242
134
9
127
243
117
11
141
241
106
15
151
237
93
17
166
233
68
27
187
223
61
33
197
218
49
38
207
205
39
53
217
196
32
60
225
186
24
74
232
168
21
88
237
160
14
97
242
147
12
115
241
129
11
126
243
119
8
140
244
104
13
155
238
92
23
70
237
170
15
90
241
156
11
97
244
147
8
114
245
127
7
131
246
115
7
141
246
101
10
159
243
83
12
172
238
76
16
184
234
62
24
198
225
50
34
207
215
41
39
217
206
30
53
225
188
102
247
137
6
123
246
122
8
130
245
113
9
148
243
90
12
166
239
82
17
172
235
72
21
190
229
54
30
201
220
48
36
209
213
35
45
223
201
27
58
227
189
21
67
235
177
13
84
242
153
236
112
14
143
237
101
15
159
237
85
19
172
228
76
28
181
221
64
32
196
217
51
43
205
204
45
52
213
196
33
61
224
185
28
76
228
171
21
85
235
160
14
97
238
147
13
112
238
136
15
42
58
218
193
30
66
226
179
25
80
230
167
20
89
236
156
12
103
241
140
13
117
239
131
12
129
243
117
10
143
239
101
16
155
234
93
17
168
233
77
23
181
224
67
33
189
217
56
37
204
62
30
202
220
43
39
217
208
32
52
222
198
27
59
230
187
17
74
239
172
13
85
242
164
11
98
245
143
6
119
247
130
7
127
247
119
9
143
245
98
11
162
241
90
14
166
237
75
18
183
241
78
16
178
234
70
20
188
230
57
28
203
219
46
36
210
211
38
42
220
201
27
59
227
187
22
69
235
179
17
79
240
160
10
100
242
148
8
108
246
137
8
125
248
116
8
141
245
106
16
87
239
155
14
107
239
140
13
116
242
130
9
130
245
111
12
146
240
101
13
157
239
89
13
172
233
72
25
183
226
65
30
194
223
53
37
204
209
43
49
212
198
35
54
222
190
28
69
228
172
91
241
150
11
106
242
140
11
118
242
129
10
133
245
111
12
146
239
102
16
157
236
86
18
174
233
72
25
184
224
63
32
195
217
48
39
209
208
40
51
214
199
34
58
225
188
21
73
232
167
238
102
14
153
237
91
18
168
234
75
22
185
226
65
30
191
219
54
37
204
211
40
46
215
199
37
58
220
190
26
66
232
177
19
80
235
166
18
91
238
154
11
106
243
139
11
116
242
126
16
47
45
214
202
35
57
223
188
28
73
228
176
22
77
235
166
16
94
238
148
13
110
240
137
10
119
244
126
9
136
242
108
13
148
241
99
13
160
240
85
17
174
230
75
24
185
225
62
27
198
49
43
217
205
30
53
227
191
23
69
233
177
17
75
238
168
13
92
243
150
10
107
246
141
8
119
248
122
7
139
245
108
9
148
244
96
9
163
240
80
15
180
234
67
20
189
226
52
35
159
190
105
9
144
240
88
13
169
237
72
19
187
230
62
26
194
224
53
31
206
216
39
43
216
204
34
53
224
195
24
64
236
180
15
77
239
167
14
84
242
158
9
103
246
138
6
117
246
131
13
94
241
145
12
114
240
132
13
125
239
121
9
140
242
106
13
152
236
95
19
163
234
82
21
179
227
69
31
186
219
62
37
198
213
46
46
211
200
41
58
217
192
33
76
171
198
209
145
32
88
162
20
88
192
209
185
146
23
110
241
135
8
124
243
123
12
138
238
110
15
149
238
96
15
165
234
82
23
173
226
72
27
185
223
59
34
199
211
51
46
205
202
41
53
218
194
30
65
223
171
238
82
15
171
236
77
21
184
232
58
26
200
222
49
35
207
215
40
40
218
204
29
58
227
191
23
64
232
185
17
77
239
167
11
93
244
151
10
103
245
144
9
88
51
128
244
109
10
146
238
194
225
52
32
208
210
33
98
32
55
227
191
25
60
232
185
17
78
237
165
13
91
241
156
9
103
246
138
8
121
247
122
7
130
247
114
7
147
246
96
12
166
240
83
13
173
237
72
17
188
41
60
223
189
26
69
230
176
20
82
233
160
17
94
239
152
11
109
242
134
12
124
241
123
10
134
245
111
11
151
240
94
16
163
236
84
18
174
235
70
30
40
44
194
215
51
41
208
209
41
11
131
243
119
12
142
240
104
19
57
20
170
233
81
23
176
227
68
27
193
220
52
37
202
212
46
46
210
204
35
55
223
191
28
66
227
180
23
76
235
169
13
92
240
154
13
101
241
144
16
101
243
137
10
122
243
125
12
129
241
113
13
147
241
95
16
163
235
88
21
171
230
73
25
188
224
58
34
196
214
52
43
205
207
40
50
221
198
32
43
40
70
229
177
18
84
241
163
13
99
186
22
76
233
167
19
91
237
156
21
60
13
114
242
127
12
129
242
117
12
139
244
103
11
157
238
89
18
170
233
77
19
179
231
66
27
192
219
56
38
201
212
45
43
213
203
36
57
220
180
232
64
23
191
226
56
29
200
222
44
37
214
208
35
49
221
198
27
58
228
186
21
74
236
172
16
86
239
162
12
95
245
147
9
115
246
128
10
107
14
137
247
105
9
156
242
87
11
164
236
178
230
66
22
194
225
51
30
204
216
44
67
47
46
222
202
25
59
232
186
21
69
236
175
15
82
242
161
9
99
244
147
9
107
245
137
6
126
247
115
7
140
245
106
9
152
242
92
12
173
39
69
225
178
22
77
233
166
17
94
234
153
16
103
240
141
10
118
242
126
12
133
240
115
13
143
241
102
12
159
236
88
21
169
227
79
25
156
67
191
218
56
41
201
206
47
50
211
202
37
13
122
239
126
11
134
242
113
12
147
240
96
134
92
21
168
230
76
24
181
225
63
33
191
215
56
42
202
209
44
50
214
196
36
63
219
185
30
70
228
176
20
84
235
161
19
99
235
151
18
115
247
123
6
138
245
106
10
148
244
97
11
164
240
79
16
181
233
67
23
188
228
59
30
203
218
43
40
214
209
36
47
220
201
28
59
233
152
238
177
14
81
240
165
12
92
245
149
7
111
200
24
65
231
183
19
73
235
175
14
85
241
152
234
142
9
117
245
132
8
125
247
118
8
143
244
100
10
154
244
91
11
166
240
75
18
187
232
63
23
193
225
54
30
207
216
40
42
216
196
222
57
34
200
213
47
42
208
209
40
50
219
192
31
66
225
182
24
75
234
172
18
89
236
156
17
102
240
145
11
112
244
129
9
130
240
176
240
106
11
151
242
93
13
166
235
77
20
177
226
157
234
82
21
177
230
66
28
185
221
61
36
195
222
211
207
37
52
218
196
32
61
225
187
25
72
234
173
16
86
236
163
15
95
239
151
10
112
244
134
10
124
241
123
12
135
242
106
13
158
30
73
231
174
17
86
238
157
13
100
241
144
14
111
244
134
10
127
243
116
10
139
240
108
16
153
239
91
16
169
234
74
23
178
228
84
210
56
35
203
213
43
44
211
203
39
54
219
193
29
15
114
241
132
10
123
245
119
10
140
241
104
13
150
89
158
239
84
18
177
231
70
25
186
222
63
32
197
221
49
39
208
206
41
52
215
196
33
60
224
187
25
74
230
170
20
87
236
160
18
136
247
100
9
159
241
85
14
172
237
75
18
183
233
59
26
199
222
48
34
208
216
42
40
218
206
29
55
225
191
22
65
232
187
21
53
13
89
242
153
10
104
246
144
9
114
246
127
7
138
214
34
44
217
200
29
55
228
194
22
66
237
177
14
63
20
89
242
157
11
103
246
140
6
119
246
124
7
131
245
115
9
148
245
94
13
163
240
84
16
174
234
71
20
190
229
54
28
201
211
214
52
43
205
204
44
54
214
196
33
63
225
183
27
76
225
169
22
85
235
159
14
100
241
145
14
112
239
134
12
123
243
119
8
143
90
148
237
98
17
159
234
85
18
174
229
71
28
183
217
150
238
93
16
167
233
80
24
177
225
69
31
189
221
49
166
49
46
207
200
43
58
214
193
30
64
226
181
25
81
229
169
20
89
236
157
14
104
240
142
13
117
239
132
12
129
243
117
11
147
21
85
242
159
10
99
245
145
6
117
248
128
8
125
245
120
9
142
244
100
10
160
242
88
12
169
239
74
19
186
231
58
28
196
224
189
219
43
40
217
207
31
52
224
195
25
63
231
187
20
14
94
243
153
9
105
246
137
8
124
247
119
7
135
246
176
246
99
12
165
240
80
17
176
236
72
20
187
231
57
29
202
220
46
38
208
213
38
45
220
203
27
59
229
188
21
68
234
178
20
150
241
88
15
172
233
73
24
184
227
65
29
195
223
53
35
205
209
45
49
214
197
34
54
223
189
26
70
228
173
21
81
234
165
89
167
11
105
241
136
12
124
241
127
9
130
242
114
11
147
220
50
38
205
210
45
46
212
200
32
58
226
188
24
68
178
77
232
170
16
89
239
153
11
106
241
141
13
115
242
128
11
134
244
113
11
147
239
101
17
156
236
85
19
172
231
71
24
180
216
210
40
49
216
199
36
57
222
192
26
67
233
178
17
83
234
165
15
91
239
155
10
105
244
138
10
120
241
127
11
132
243
111
11
75
14
158
237
90
20
170
231
77
23
185
225
62
32
194
213
143
241
102
12
159
238
86
18
172
231
77
22
181
230
64
34
50
39
204
209
44
44
212
204
35
54
222
188
29
70
228
176
22
81
234
167
15
94
238
148
16
110
240
136
11
119
244
126
10
140
16
109
245
137
8
118
248
123
8
139
245
106
8
154
244
95
10
161
242
80
15
177
235
68
22
186
229
58
26
202
220
45
39
215
141
216
201
30
52
228
191
22
70
234
172
17
85
239
167
14
22
74
235
176
14
84
241
157
9
101
245
141
8
110
246
150
241
118
8
145
244
99
10
154
241
91
13
170
238
72
19
187
229
61
27
192
223
50
33
207
217
37
43
217
204
33
51
223
194
27
120
255
122
0
138
255
106
0
149
252
96
1
166
251
73
5
185
244
63
14
193
238
50
19
209
229
35
29
220
219
29
39
228
210
208
195
11
63
246
181
4
77
250
170
0
89
255
151
0
109
206
15
56
240
189
10
68
247
178
4
80
254
160
0
100
242
127
255
130
0
126
255
114
0
149
255
95
0
159
253
87
0
173
251
71
9
191
241
55
16
200
235
46
21
213
225
32
36
226
201
11
151
244
97
10
158
244
84
14
175
237
68
20
185
229
60
26
198
223
47
35
211
209
41
47
218
203
31
52
227
193
23
69
231
156
237
163
14
89
242
154
9
108
246
135
8
125
245
123
12
44
42
216
207
32
50
225
194
22
65
233
184
20
73
237
181
237
158
8
103
245
141
9
112
246
135
8
131
246
113
9
144
243
103
12
153
241
85
14
175
236
70
19
186
229
63
26
195
223
48
171
19
79
235
166
16
90
238
158
13
104
243
140
9
120
244
127
12
128
241
118
10
143
241
98
15
159
235
90
21
166
230
77
22
81
29
195
218
52
38
201
210
44
48
214
201
31
58
223
184
103
241
138
11
121
243
122
11
133
243
113
9
146
243
96
32
80
19
172
230
75
21
184
230
61
30
196
216
53
41
204
209
42
47
215
202
34
58
222
184
30
72
229
177
20
80
235
163
15
105
207
221
56
33
203
213
43
45
212
198
37
59
222
192
27
65
229
178
22
83
233
163
16
89
237
152
12
106
240
137
13
120
240
125
81
125
10
144
242
99
13
159
238
87
18
170
235
78
16
181
238
84
19
171
230
75
25
184
226
60
31
197
216
50
41
153
54
214
199
33
56
226
189
24
70
230
177
21
80
236
164
12
97
240
152
12
107
240
140
12
120
244
125
10
134
244
111
12
144
245
9
130
245
122
7
138
245
103
9
157
241
87
15
168
238
78
18
181
231
60
25
196
224
52
33
203
215
44
40
216
206
30
54
225
194
223
186
21
70
237
174
14
86
242
158
9
101
244
148
12
30
59
227
191
22
69
236
175
18
85
240
160
11
95
244
187
244
134
7
126
247
120
7
135
246
110
9
150
243
91
13
169
238
81
16
175
235
70
20
192
229
55
28
201
221
47
37
211
212
37
176
24
75
228
172
24
85
232
163
16
94
241
148
13
110
241
133
14
122
240
124
12
135
243
109
13
148
234
98
18
159
234
85
22
186
88
184
222
66
36
194
214
52
39
206
208
41
50
213
191
113
244
126
9
131
240
115
14
141
239
104
15
156
240
81
173
79
25
176
224
72
30
188
220
58
37
201
209
47
51
207
200
39
55
219
192
28
68
225
178
26
80
231
169
19
91
239
155
12
111
193
233
65
23
196
226
50
34
206
216
42
39
215
209
33
51
225
193
24
66
232
181
19
70
237
173
13
89
243
152
9
106
244
142
10
67
7
127
247
112
9
148
244
101
9
155
244
89
13
172
237
64
23
190
227
60
28
199
222
47
36
216
209
33
44
42
54
226
194
21
63
235
178
17
80
240
165
11
92
242
156
10
105
246
134
8
120
247
128
8
131
246
112
8
151
243
92
12
162
232
12
113
241
135
12
124
244
121
10
140
242
105
13
148
236
95
18
165
235
79
20
179
228
69
30
186
221
56
35
203
211
42
45
210
201
60
186
31
63
226
185
21
75
235
171
17
87
238
162
16
27
75
232
173
19
84
238
159
17
102
239
143
12
113
85
119
245
121
10
139
241
105
14
151
239
93
14
163
237
81
19
177
229
70
27
187
224
60
29
199
217
49
42
208
203
42
50
217
199
32
187
31
61
224
180
27
78
231
173
19
83
238
160
16
101
240
142
13
112
244
133
8
126
243
115
12
143
240
103
13
153
239
93
14
168
232
180
225
70
28
186
224
59
31
201
216
47
41
208
201
121
245
118
10
141
241
107
14
148
238
95
18
165
235
187
231
68
27
185
222
61
36
198
215
45
44
212
204
38
53
217
196
31
61
228
186
22
74
233
172
19
86
235
162
14
97
243
145
9
120
172
239
83
15
178
234
65
22
187
227
58
27
199
224
46
37
216
209
34
49
222
202
30
55
229
189
19
70
237
173
14
80
240
165
13
94
243
162
245
136
8
121
245
125
9
131
246
111
9
152
225
49
33
207
216
43
38
215
209
34
50
224
184
216
183
20
73
236
177
15
84
242
157
10
102
243
142
9
111
246
133
7
128
248
114
8
146
245
101
9
156
245
89
13
173
237
72
19
185
223
14
106
238
142
12
115
243
129
10
130
241
115
14
141
239
106
14
156
238
87
18
169
230
79
28
178
223
66
29
194
219
54
40
200
205
47
51
168
74
221
191
28
68
224
177
26
82
231
166
19
24
85
233
164
17
95
240
151
14
109
239
131
123
128
12
131
242
113
11
147
238
98
17
157
234
90
19
171
232
74
25
186
222
66
35
192
213
53
40
206
207
41
52
214
194
36
64
222
185
29
201
35
50
222
199
29
57
227
190
21
67
237
174
16
85
240
162
12
92
243
148
10
112
246
129
8
130
245
120
8
137
245
104
9
156
241
87
17
128
22
177
238
69
21
191
227
52
32
205
213
136
245
107
9
156
242
87
13
166
237
81
43
78
23
191
226
51
32
204
218
45
39
213
209
35
48
224
196
25
62
232
188
21
68
236
175
14
87
243
157
9
101
245
148
8
111
247
131
7
136
153
241
99
14
162
236
83
20
169
229
75
26
184
225
60
31
200
216
51
41
204
207
41
49
219
199
28
61
226
186
26
72
230
175
19
81
239
164
16
60
26
106
242
139
12
119
243
122
9
138
217
45
47
211
202
38
57
219
193
33
56
25
76
231
167
20
92
237
156
13
102
243
143
11
118
241
127
12
131
244
118
9
143
241
99
14
160
238
88
17
169
237
77
19
184
229
64
30
193
210
15
97
238
153
12
105
244
138
10
123
242
120
11
135
243
111
10
148
243
96
15
165
236
84
19
173
234
72
23
187
226
61
32
196
214
52
39
206
211
41
43
30
63
225
181
28
71
229
178
22
16
90
238
158
15
99
243
143
18
59
19
129
241
122
13
139
241
104
13
157
238
89
18
164
231
80
25
180
229
65
29
196
219
54
39
202
211
43
46
215
201
31
57
223
191
27
67
227
183
23
216
48
33
209
214
41
43
216
207
32
52
228
193
21
64
232
183
19
73
238
169
12
91
243
152
9
103
245
143
9
116
248
127
6
134
246
109
8
142
245
105
10
91
25
172
237
71
20
186
227
159
240
86
15
176
234
62
65
55
27
196
223
51
30
210
215
38
45
217
202
33
54
224
195
23
66
234
179
18
81
238
164
12
91
243
154
8
106
246
135
7
123
247
124
7
132
247
112
8
155
147
240
107
12
152
239
95
18
159
232
85
22
175
230
70
27
189
220
62
39
195
213
50
44
209
204
38
55
217
190
34
66
224
181
25
75
234
170
20
90
234
158
21
100
159
197
221
139
16
122
198
39
67
203
214
175
143
38
76
231
172
18
86
235
157
17
101
236
148
13
111
242
134
11
126
242
121
15
137
239
108
15
152
240
93
16
166
231
83
24
174
226
70
28
189
221
59
37
196
203
14
78
238
170
13
86
243
154
8
108
245
138
8
115
246
126
7
132
246
109
9
151
245
98
11
159
243
84
14
178
235
65
21
189
230
61
24
197
224
47
35
210
211
38
47
219
194
40
61
121
140
97
31
104
244
132
8
130
247
112
7
145
245
100
11
155
242
91
14
173
237
71
21
185
230
63
26
195
225
48
34
210
213
38
44
217
205
31
52
227
194
21
66
235
179
17
78
238
171
16
222
64
29
190
220
57
37
202
212
44
45
216
202
34
56
220
191
28
65
229
182
20
79
236
169
17
92
238
155
13
104
243
140
10
118
244
127
11
128
240
118
12
143
241
100
13
156
235
87
25
77
24
186
228
61
29
195
218
52
39
204
210
42
47
215
203
34
59
222
187
27
73
230
180
20
79
234
164
15
99
238
146
13
105
242
137
8
122
245
121
11
139
242
109
11
150
241
98
13
167
140
245
116
10
144
240
100
13
154
239
90
14
168
237
78
19
182
227
65
29
192
222
57
33
203
212
46
46
213
198
37
57
222
192
28
65
229
178
22
82
231
165
18
91
237
155
12
106
241
137
58
227
185
24
70
229
176
20
80
236
165
13
94
241
151
13
105
240
143
11
119
245
125
9
134
243
110
13
147
239
99
16
161
237
81
19
176
231
73
27
183
224
61
32
200
216
46
41
207
198
22
59
231
190
21
69
237
174
13
86
241
161
10
94
244
151
9
111
247
130
7
128
246
121
8
138
246
105
10
158
242
85
14
169
238
78
17
181
232
62
24
194
225
53
31
204
218
44
38
213
246
117
8
138
245
109
9
152
244
91
13
168
238
79
16
176
235
68
21
191
230
55
30
203
218
45
37
212
212
36
46
222
196
25
60
229
187
20
68
236
175
15
85
242
156
11
102
244
147
13
224
74
27
180
223
66
32
192
217
53
40
205
207
46
51
211
195
36
59
222
187
25
72
228
172
24
85
233
164
16
95
240
149
12
112
239
135
14
121
240
124
10
134
242
109
13
149
236
100
22
69
32
190
220
57
37
202
209
48
49
206
198
40
54
219
192
29
70
225
178
25
80
231
166
17
92
240
153
14
105
239
140
14
117
241
128
10
132
242
113
13
144
237
103
16
156
235
89
17
174
124
245
131
7
132
247
114
8
140
246
104
8
154
243
87
12
175
238
74
16
180
232
64
23
196
225
51
34
206
216
44
40
216
209
32
51
225
192
24
65
232
183
19
70
237
170
13
88
243
152
67
236
176
14
81
240
165
12
90
243
154
10
106
246
135
8
122
247
126
8
133
246
107
10
154
243
90
12
162
239
82
16
175
235
65
23
193
226
56
30
200
220
46
37
214
210
32
49
223
189
34
53
217
196
28
60
228
185
21
74
232
174
19
84
237
162
11
98
243
147
11
110
242
134
13
121
244
119
10
141
242
107
13
150
236
95
17
166
234
77
20
181
228
70
29
188
219
57
36
201
242
101
14
151
239
94
13
164
238
81
19
177
230
70
27
187
226
60
30
201
216
48
44
209
203
40
52
217
198
30
60
227
182
24
80
230
168
19
86
238
159
12
102
240
141
12
117
241
132
16
231
80
19
176
230
73
24
186
227
59
30
200
214
50
42
208
207
40
47
218
198
32
62
225
180
27
75
231
173
19
86
237
160
16
103
239
142
12
115
243
133
8
127
243
115
12
144
241
103
16
63
35
198
215
47
43
212
205
37
52
216
196
32
62
228
186
20
75
234
169
19
86
236
162
13
97
242
145
8
114
244
131
11
123
242
122
11
139
243
104
12
153
237
94
19
164
233
79
21
184
102
245
151
9
108
245
137
7
117
246
127
8
133
247
108
9
151
242
98
11
158
241
83
15
177
235
66
23
188
226
59
28
200
221
45
37
214
209
33
50
220
200
28
56
229
191
18
70
237
172
83
241
156
11
102
244
142
9
111
245
133
9
130
248
114
8
144
245
102
10
156
245
89
13
172
236
73
20
185
231
63
23
196
225
49
31
209
214
38
43
217
206
32
49
225
197
23
65
233
172
42
48
209
202
37
55
220
191
31
69
223
178
27
77
232
168
17
90
237
154
16
105
238
142
11
115
243
129
9
131
242
116
15
142
238
106
14
156
240
88
19
170
230
79
28
179
224
67
30
191
239
94
17
156
234
90
20
169
233
76
25
185
223
67
35
193
214
54
41
206
208
42
53
212
194
36
64
220
186
26
72
230
173
20
86
233
158
19
97
239
149
12
111
241
133
12
125
240
122
18
240
91
11
163
241
83
14
176
237
68
20
194
227
56
28
200
222
47
34
212
211
36
49
221
197
29
55
228
191
21
68
236
173
16
85
240
161
11
93
243
150
8
112
245
131
7
129
246
119
11
43
41
214
211
34
48
227
196
24
63
230
188
21
66
236
174
14
88
241
158
11
98
243
151
8
110
246
131
7
128
246
112
8
138
245
103
11
155
242
86
14
173
237
75
18
180
232
64
23
198
89
239
163
14
93
240
155
13
103
241
143
8
119
246
126
9
133
241
116
13
144
239
100
13
161
237
87
19
170
230
75
25
185
224
60
31
199
216
51
41
205
207
41
49
218
199
30
61
225
185
103
242
142
13
120
241
126
12
130
243
119
10
143
241
100
14
160
237
89
18
168
235
76
19
183
228
63
30
192
218
55
35
202
213
44
45
214
200
36
59
221
188
29
64
230
179
22
82
234
154
47
37
205
212
43
46
215
200
35
61
221
189
29
66
230
180
21
81
234
162
18
95
238
153
12
105
244
139
10
122
241
122
12
135
241
113
10
148
243
97
14
164
236
82
17
173
233
71
22
184
237
87
18
165
231
79
23
181
229
65
29
196
219
55
40
200
211
44
46
214
201
33
56
224
189
28
66
228
179
20
77
237
166
12
93
240
154
14
102
242
142
9
119
245
124
10
133
240
115
20
244
112
8
141
244
105
11
157
242
86
14
176
237
77
18
181
232
64
24
197
224
49
33
207
214
42
43
216
207
31
50
227
191
20
67
231
184
18
72
238
171
12
92
245
151
8
105
245
143
9
33
58
226
194
24
67
234
178
17
81
238
165
13
91
243
154
10
107
246
134
7
123
247
123
6
132
247
109
8
151
243
92
12
162
241
84
14
176
236
68
22
193
227
57
28
200
222
46
35
212
83
233
170
20
87
233
159
18
98
239
148
11
111
241
134
12
125
239
122
12
137
242
110
11
152
239
96
18
160
231
85
22
175
229
70
27
188
220
62
37
196
212
50
43
208
203
37
54
218
190
113
243
132
10
127
240
120
13
138
239
107
15
152
240
94
16
165
230
82
25
174
226
70
27
189
220
57
37
197
208
51
47
209
204
38
55
219
191
32
68
223
179
25
76
232
168
16
90
237
147
54
24
196
226
50
32
209
213
39
42
216
207
33
49
226
194
24
64
234
179
17
76
238
171
13
87
243
154
9
109
245
137
7
116
246
127
7
133
246
109
9
151
244
97
11
161
242
83
14
172
238
68
20
184
230
64
26
195
224
48
36
210
214
38
45
216
204
32
52
226
194
20
67
235
177
18
75
239
170
12
90
243
152
8
107
246
139
8
116
246
126
8
134
247
109
8
150
244
99
19
242
132
11
122
241
120
11
140
243
104
12
154
237
92
18
164
234
80
21
182
228
64
29
191
219
58
36
202
212
43
46
214
202
35
56
218
192
29
67
228
182
21
78
236
167
17
88
237
156
16
28
72
229
178
20
80
238
163
17
99
238
147
13
107
242
138
9
122
244
121
11
138
241
109
12
148
243
97
13
164
238
82
20
175
231
71
23
186
227
59
31
198
213
49
43
207
207
42
48
216
72
227
182
26
78
231
168
19
86
237
158
13
102
241
142
13
118
242
131
10
127
244
117
9
144
241
101
13
155
239
92
16
167
235
77
20
181
226
63
31
191
221
56
31
204
213
44
47
211
199
119
244
123
9
135
242
110
13
146
237
101
17
160
237
82
20
176
230
74
28
182
224
59
34
200
216
48
41
210
205
42
52
216
198
29
61
228
185
22
73
231
174
19
84
238
163
13
98
244
140
70
17
176
234
65
23
195
227
54
29
201
220
46
37
213
210
33
49
222
198
27
57
229
190
19
70
237
174
12
86
241
162
11
95
245
148
9
111
248
127
7
128
246
121
7
136
245
103
10
154
228
51
31
203
217
44
39
210
214
37
46
223
198
25
60
229
188
21
68
235
176
16
84
241
157
12
99
245
150
9
109
246
131
7
131
246
115
7
140
247
105
9
154
243
88
14
175
237
72
27
240
138
14
118
242
128
8
131
243
113
13
146
237
103
15
157
235
90
17
171
231
77
25
181
222
68
31
192
217
53
40
204
208
44
52
212
196
36
59
222
186
25
73
229
172
23
85
233
163
19
23
82
232
165
16
93
239
154
14
105
239
139
14
118
242
128
10
130
244
113
11
144
237
104
17
156
237
89
17
172
232
74
26
181
221
67
33
193
219
54
40
204
207
48
53
211
195
35
60
221
59
224
196
26
59
229
187
21
68
235
176
14
86
240
157
11
101
245
148
8
111
247
132
7
131
247
116
6
140
246
106
9
153
243
88
13
171
238
72
17
179
233
64
23
195
226
51
32
207
212
133
247
108
10
152
243
89
13
164
238
83
15
176
235
66
22
192
227
54
30
199
220
47
37
214
210
32
49
222
198
26
57
229
189
21
69
236
174
12
85
242
162
12
94
243
149
8
111
248
125
99
22
152
229
91
26
166
224
83
32
174
218
71
37
189
213
57
45
197
203
52
52
206
196
41
61
217
184
33
73
219
175
30
82
227
165
22
95
233
150
22
106
231
140
22
118
235
126
18
133
207
49
55
208
192
44
63
214
185
35
72
220
173
29
89
223
159
25
96
230
152
20
108
233
135
22
123
232
125
19
132
234
112
19
148
231
97
25
159
228
88
25
169
224
75
31
182
216
66
46
