P2
100 68
255
112
55
60
60
60
60
60
60
60
60
60
60
60
62
85
71
59
60
69
80
87
88
81
73
94
88
99
92
106
128
157
79
58
59
60
60
60
59
56
86
170
164
154
71
59
60
60
60
60
60
60
60
60
60
60
60
60
60
60
60
60
60
60
60
60
60
60
60
60
60
60
60
60
60
60
60
78
129
102
60
59
60
60
60
60
60
60
60
60
60
60
60
60
60
60
60
60
60
69
204
175
165
65
59
60
60
60
60
60
60
60
60
60
60
60
60
60
60
60
60
60
60
60
60
60
60
60
60
59
56
105
110
106
68
67
59
59
62
144
209
159
55
59
60
60
60
60
60
60
60
60
60
60
60
60
60
60
60
60
60
60
60
60
60
60
60
60
60
60
60
60
60
60
60
60
60
59
58
99
172
85
59
60
60
60
60
60
60
60
60
60
60
60
60
60
60
60
60
60
68
59
71
209
114
58
60
60
60
60
60
60
60
60
60
60
60
60
60
60
60
60
60
60
60
60
60
60
60
60
60
59
61
78
127
102
105
88
234
132
163
57
59
60
60
60
60
60
60
60
60
60
60
60
60
60
60
60
60
60
60
60
60
60
60
60
60
60
60
60
60
60
60
60
60
60
60
60
59
60
67
127
158
58
59
60
60
60
60
60
60
60
60
60
60
60
60
60
60
60
59
60
59
57
108
130
56
60
60
60
60
60
60
60
60
60
60
60
60
60
60
60
60
60
60
60
60
60
60
60
60
60
60
59
58
68
140
196
177
169
65
55
58
60
60
60
60
60
60
60
60
60
60
60
60
60
60
60
60
60
60
60
60
60
60
60
59
60
60
60
60
60
60
60
60
60
60
60
60
60
59
59
96
155
92
57
60
60
60
60
60
60
60
60
60
60
60
60
60
60
60
60
60
60
57
130
127
53
60
60
60
60
60
60
60
60
60
60
60
60
60
60
60
60
60
60
60
60
60
60
60
60
60
60
50
164
177
179
110
89
122
116
105
110
101
69
55
60
60
60
60
60
60
60
60
60
60
60
60
60
60
60
60
60
60
79
82
60
60
60
60
60
60
60
60
60
60
60
60
60
60
60
59
87
145
116
55
60
60
60
60
60
60
60
60
60
60
60
60
60
60
60
60
60
60
56
107
150
82
57
60
60
60
60
60
60
60
60
60
60
60
60
60
60
60
60
60
60
60
60
60
58
82
59
175
162
182
54
60
59
55
85
111
109
104
132
130
74
62
59
60
60
60
60
60
60
60
60
60
60
60
60
60
60
60
142
99
60
60
60
60
60
60
60
60
60
60
60
60
60
60
60
60
59
76
125
110
58
60
60
60
60
60
60
60
60
60
60
60
60
60
60
60
60
60
60
60
57
109
177
61
59
60
60
60
60
60
60
60
60
60
60
60
60
60
60
60
60
60
60
58
141
190
185
143
160
53
60
60
60
60
60
60
59
58
60
72
111
140
74
60
59
60
60
60
60
60
60
60
60
60
60
60
60
60
161
112
60
60
60
60
60
60
60
60
60
60
60
60
60
60
60
60
60
60
62
102
106
60
59
60
60
60
60
60
60
60
60
60
60
60
60
60
60
60
60
60
60
59
64
192
70
59
60
60
60
60
60
60
60
60
60
60
60
60
60
60
60
60
60
77
246
152
154
120
58
60
60
60
60
60
60
60
60
60
59
59
61
73
106
138
85
58
60
60
60
60
60
60
60
60
60
60
60
60
136
132
59
60
60
60
60
60
60
59
54
59
60
60
60
60
60
60
60
60
59
59
108
110
77
59
60
60
60
60
60
60
60
60
60
60
60
60
60
60
60
60
60
60
59
147
254
131
60
60
60
60
60
60
60
60
60
60
60
60
60
60
60
60
60
152
224
190
144
58
60
60
60
60
60
60
60
60
60
60
60
60
60
59
65
77
114
100
87
56
57
57
57
60
60
60
60
60
60
60
98
157
59
60
60
60
60
57
70
158
171
63
60
60
60
60
60
60
60
60
60
60
58
68
104
81
55
60
60
60
60
60
60
60
60
60
60
60
60
60
60
60
60
60
60
54
189
100
60
60
60
60
60
60
60
60
60
60
60
60
60
60
60
59
50
214
206
162
57
60
60
60
60
60
60
60
60
60
60
60
60
60
60
60
60
59
65
127
105
110
118
113
97
60
60
60
60
60
60
60
59
208
56
60
60
54
78
133
162
96
58
59
60
60
60
60
60
60
60
60
60
60
60
59
59
120
120
82
56
59
60
60
60
60
60
60
60
60
60
60
60
60
60
60
60
60
83
165
59
60
60
60
60
60
60
60
60
60
60
60
60
60
60
58
173
243
137
162
60
60
60
60
60
60
60
60
60
60
60
60
60
60
60
60
60
60
58
107
66
88
99
76
60
59
60
60
60
60
60
60
48
208
53
58
70
156
192
111
57
60
60
60
60
60
60
60
60
60
60
60
60
60
60
60
59
61
81
121
128
69
58
60
60
60
60
59
60
60
60
60
60
60
60
60
60
60
56
165
59
60
60
60
60
60
60
60
60
60
60
60
60
60
58
142
252
164
126
59
60
60
60
60
60
60
60
60
60
60
60
60
60
60
60
60
60
60
59
65
124
59
60
92
109
75
59
60
60
60
60
60
55
155
53
167
171
138
61
59
60
60
60
60
60
60
60
60
60
60
60
60
60
60
60
60
60
59
59
71
94
128
134
57
60
60
59
127
60
60
60
60
60
60
60
60
60
60
60
73
163
58
60
60
60
60
60
60
60
60
60
60
60
60
67
255
158
112
57
60
60
60
60
60
60
60
60
60
60
60
60
60
60
60
60
60
60
60
60
59
108
80
59
59
70
102
85
57
60
60
60
60
58
132
177
146
69
57
59
60
60
60
60
60
60
60
60
60
60
60
60
60
60
60
60
60
60
60
60
59
60
67
102
144
89
70
204
145
60
60
60
60
60
60
60
60
60
60
60
57
175
65
60
60
60
60
60
60
60
60
60
60
60
69
220
142
169
54
60
60
60
60
60
60
60
60
60
60
60
60
60
60
60
60
60
60
60
60
60
60
58
149
60
60
59
60
83
97
67
58
60
60
84
210
66
55
60
60
60
60
60
60
60
60
60
60
60
60
60
60
60
60
60
60
60
60
60
60
60
60
60
59
56
105
220
201
204
154
60
60
60
60
60
60
60
60
60
60
60
59
77
111
58
60
60
60
60
60
60
60
60
60
55
216
192
196
70
60
60
60
60
60
60
60
60
60
60
60
60
60
60
60
60
60
60
60
60
60
60
60
59
95
95
59
60
60
58
77
120
104
65
54
188
108
59
60
60
60
60
60
60
60
60
60
60
60
60
60
60
60
60
60
60
60
60
60
60
60
60
59
55
76
156
217
145
174
178
77
60
60
60
60
60
60
60
60
60
60
60
60
59
189
60
60
60
60
60
60
60
60
60
59
137
228
151
89
59
60
60
59
59
60
60
60
60
60
60
60
60
60
60
60
60
60
60
60
60
60
60
60
60
58
110
56
60
60
60
60
61
87
133
147
164
54
60
60
60
60
60
60
60
60
60
60
60
60
60
60
60
60
60
60
60
60
60
60
60
59
59
73
210
236
130
187
92
58
70
105
60
60
60
60
60
60
60
60
60
60
60
60
59
59
125
59
60
60
60
60
60
60
60
49
218
155
149
59
60
60
55
165
67
59
60
60
60
60
60
60
60
60
60
60
60
60
60
60
60
60
60
60
60
60
61
59
60
60
60
60
59
59
62
184
77
59
60
60
60
60
60
60
60
60
60
60
60
60
60
60
60
60
60
60
60
60
60
59
52
99
209
162
173
189
113
63
59
56
161
142
60
60
60
60
60
60
60
60
60
60
60
60
60
58
163
60
60
60
60
60
60
60
60
171
158
172
53
60
60
60
59
66
187
128
53
60
60
60
60
60
60
60
60
60
60
60
60
60
60
60
60
60
60
60
60
60
60
60
60
60
60
57
178
86
58
60
60
60
60
60
60
60
60
60
60
60
60
60
60
60
60
60
60
60
60
58
52
161
224
179
159
169
69
54
58
58
77
166
91
58
60
60
60
60
60
58
97
71
56
60
60
60
60
60
53
153
56
60
60
60
60
60
54
203
198
52
60
60
60
60
60
59
55
143
157
63
59
60
60
60
60
60
60
60
60
60
60
60
60
60
60
60
60
60
60
60
60
60
60
60
59
86
169
61
60
60
60
60
60
60
60
60
60
60
60
60
60
60
60
60
60
60
58
52
63
126
201
174
141
137
66
54
60
60
53
112
161
71
59
60
60
60
60
60
60
59
86
191
144
72
57
59
60
60
59
110
64
60
60
60
60
58
181
172
64
59
58
58
57
58
58
58
58
57
79
186
88
60
59
60
60
60
60
60
60
60
60
60
60
60
60
60
60
60
60
60
60
60
60
60
65
214
81
59
60
60
60
60
60
60
60
60
60
60
60
60
60
60
60
59
59
71
109
212
252
210
133
127
53
59
60
60
58
66
155
120
54
60
60
60
60
60
60
60
60
60
59
60
61
142
209
107
59
59
60
70
133
60
60
59
53
195
133
80
59
95
133
176
189
180
161
173
142
90
56
148
212
218
100
58
60
60
60
60
60
60
60
60
60
60
60
60
60
60
60
60
60
60
60
52
186
136
59
60
60
60
60
60
60
60
60
60
60
60
60
60
60
60
60
51
200
218
151
165
155
113
59
59
60
60
60
58
122
167
71
60
60
60
60
60
60
60
60
60
60
60
60
60
59
58
71
114
139
180
144
140
184
135
170
186
212
187
218
127
130
95
97
70
71
73
83
92
96
108
106
131
167
190
227
207
66
51
59
59
60
60
60
60
60
60
60
60
60
60
60
60
60
60
60
146
164
60
60
60
60
60
60
60
60
60
60
60
60
60
60
60
60
59
52
179
156
117
73
57
57
58
60
60
60
51
127
164
87
60
59
60
60
60
60
60
60
60
60
60
60
60
60
59
56
51
77
151
191
162
99
113
120
89
88
78
226
145
97
56
57
59
85
164
91
59
59
58
58
58
58
57
61
64
65
85
139
164
149
173
127
92
62
48
51
54
56
56
57
59
60
60
60
59
47
184
82
60
60
60
60
60
60
60
60
60
60
60
60
60
60
60
58
72
164
148
123
55
60
60
60
60
60
56
82
154
104
54
59
60
60
60
60
60
60
60
60
60
59
58
54
60
74
98
137
173
159
96
67
55
59
56
93
59
60
117
180
122
59
69
64
60
60
147
106
66
60
60
60
60
60
60
60
60
60
60
58
54
55
97
164
208
235
231
202
168
150
160
144
105
69
55
59
59
199
116
57
60
60
60
60
60
60
60
60
60
60
60
60
60
59
57
112
179
175
55
57
60
60
59
55
71
90
135
140
59
59
60
60
60
60
60
60
60
60
60
60
66
67
120
212
201
162
138
131
63
59
60
60
60
60
59
104
59
52
182
134
59
60
54
89
59
60
58
110
60
59
59
60
59
60
60
60
60
60
60
60
60
60
60
58
57
58
91
102
87
82
103
149
203
254
192
84
64
173
70
60
60
60
60
60
60
60
60
60
60
60
60
59
64
88
215
169
143
57
59
59
62
66
90
188
175
122
63
59
60
60
60
60
60
60
60
60
60
60
59
94
156
134
107
82
66
63
59
59
59
60
60
60
60
59
114
206
59
188
172
95
60
60
59
103
55
60
59
120
56
80
118
60
54
91
60
60
60
60
60
60
60
60
60
60
60
59
59
59
59
59
59
60
62
64
105
197
240
132
56
60
60
60
60
60
60
60
60
60
60
60
53
113
172
168
155
62
56
53
103
168
170
122
82
62
59
59
59
60
60
60
60
60
60
60
60
60
59
55
135
58
70
57
58
59
60
60
60
60
58
60
60
60
60
59
99
92
87
215
188
52
60
60
60
90
67
60
60
121
56
85
207
59
54
209
55
60
60
60
60
60
60
60
60
60
60
60
60
60
60
60
60
60
60
60
58
59
78
216
156
47
59
60
60
59
57
56
100
57
48
113
177
180
152
141
152
168
135
114
96
69
55
57
59
60
60
60
60
60
60
60
60
60
60
60
59
50
114
222
199
60
60
60
60
60
60
60
60
58
81
57
60
60
60
59
105
51
161
141
155
55
60
60
60
84
69
59
62
78
59
54
127
60
59
134
59
60
60
60
60
60
60
60
60
60
60
60
60
60
60
60
60
60
60
60
60
60
59
49
148
248
131
55
79
125
139
133
157
116
187
167
131
138
105
77
63
50
55
59
60
60
60
60
60
60
60
60
60
60
60
60
59
58
57
70
144
227
212
150
101
60
60
60
60
60
60
60
60
61
76
78
59
60
60
60
101
68
210
171
67
60
60
60
60
86
69
62
119
59
60
58
91
59
60
117
54
60
60
60
60
60
60
60
60
60
60
60
60
60
60
60
60
60
60
60
60
60
60
60
57
93
227
173
216
205
187
194
125
169
156
96
59
60
60
60
60
60
60
60
60
60
60
60
60
60
60
60
60
59
61
79
99
108
135
255
215
144
140
54
57
60
60
60
60
60
60
60
60
59
96
83
56
59
59
60
55
178
200
163
55
60
60
60
60
56
96
104
60
59
60
59
64
87
59
112
54
60
60
60
60
60
60
60
60
60
60
60
60
60
60
60
60
60
60
60
60
60
60
59
59
59
83
211
206
196
177
158
155
168
71
59
60
60
60
60
60
60
60
60
60
60
60
60
60
60
60
60
59
65
156
90
59
207
246
138
188
55
59
70
196
60
60
60
60
60
60
62
103
102
98
108
147
114
61
60
53
190
132
143
56
60
60
60
60
56
132
69
60
60
60
60
59
111
60
110
54
60
60
60
60
60
60
60
60
60
60
60
60
60
60
60
60
60
60
60
60
60
60
107
59
55
160
198
192
177
160
187
173
95
72
66
60
60
60
60
60
60
60
60
60
60
60
60
60
60
60
59
75
93
49
155
244
172
173
87
53
76
222
184
136
60
60
60
60
60
60
60
60
86
57
108
116
92
56
60
70
236
204
165
69
82
60
60
60
55
118
59
60
60
60
60
59
83
62
93
58
60
60
60
60
60
60
60
60
60
60
60
60
60
60
60
60
60
60
60
60
60
60
114
57
55
167
176
168
154
153
126
111
74
84
77
60
60
60
60
60
60
60
60
60
60
60
60
60
60
58
80
100
155
250
226
171
125
60
151
169
156
79
79
54
60
60
60
60
60
60
60
59
55
99
88
57
73
115
62
112
179
223
138
93
125
57
60
56
128
59
60
60
60
76
71
60
59
69
99
56
60
60
60
60
60
60
60
60
60
60
60
60
60
60
60
60
60
60
60
58
58
75
71
103
98
137
149
143
171
165
98
77
82
112
72
60
59
60
60
60
60
60
60
58
56
60
69
77
72
90
95
81
229
169
149
130
140
230
144
85
56
60
55
108
60
60
60
60
60
60
60
60
60
59
52
210
121
83
116
177
142
252
149
51
166
81
59
116
78
59
60
60
58
201
138
54
60
100
109
54
60
60
60
60
60
60
60
60
60
60
60
60
60
60
60
60
60
60
59
94
158
171
163
95
167
145
115
110
199
119
77
88
110
141
63
69
72
65
62
60
59
64
66
104
162
152
135
115
131
71
60
84
151
233
206
178
127
78
57
60
60
59
136
68
60
60
60
60
60
60
59
58
60
60
71
209
59
61
121
207
182
237
129
53
106
141
157
64
112
127
58
60
49
171
183
55
59
106
116
55
60
60
60
60
60
60
60
60
60
60
60
60
60
60
60
60
60
60
94
126
86
92
127
134
94
58
64
82
187
88
106
126
144
171
123
113
122
121
151
192
170
153
106
85
52
54
97
116
170
201
191
168
146
122
78
61
60
59
60
60
59
112
69
57
60
60
60
60
60
52
144
159
59
60
73
210
59
60
168
173
148
172
81
98
92
101
67
124
70
57
60
59
177
188
100
98
58
60
152
54
60
60
60
60
60
60
60
60
60
60
60
60
60
60
60
60
60
57
126
157
155
106
136
176
114
145
120
71
173
118
154
130
88
194
64
58
61
74
133
81
71
78
93
108
131
113
99
154
102
77
65
106
142
55
71
56
59
54
50
56
93
195
179
150
60
60
60
60
75
159
151
56
59
60
67
193
59
58
211
143
150
160
64
52
154
75
137
59
60
55
70
55
195
129
77
61
89
53
136
55
60
60
60
57
63
60
60
60
60
59
59
60
60
60
60
60
60
65
255
148
135
57
61
203
67
83
92
140
154
151
88
55
55
131
175
60
108
157
53
57
53
53
90
115
121
145
187
156
101
58
59
65
147
74
68
141
131
147
151
150
114
105
50
48
60
60
59
77
210
151
49
60
60
60
62
191
59
58
216
161
151
98
93
94
193
95
137
62
66
128
82
162
179
124
72
59
58
76
106
59
60
60
59
102
85
60
60
60
60
73
73
61
59
60
60
60
59
94
121
143
112
59
133
180
142
68
98
180
145
145
94
64
87
95
198
153
167
96
91
105
183
222
166
130
85
52
56
56
58
59
58
65
92
161
168
87
85
54
58
60
61
123
58
60
60
59
60
195
154
53
60
60
60
60
88
180
59
156
170
155
215
73
59
54
111
153
118
121
148
62
81
155
73
80
104
62
60
72
82
110
59
60
54
99
76
58
60
60
60
60
59
95
65
60
59
59
60
166
141
93
80
63
106
111
130
130
59
180
125
149
88
67
59
62
179
171
149
152
170
134
111
72
59
59
60
60
60
60
59
76
131
132
82
108
95
98
59
78
59
60
58
138
58
60
59
65
186
118
59
60
60
60
60
60
122
136
59
225
145
213
157
59
60
59
141
87
176
188
108
151
212
189
135
128
121
68
116
56
58
120
52
56
159
103
67
59
59
57
57
58
60
59
68
98
59
59
100
111
91
52
190
187
169
169
111
139
105
155
106
133
100
53
107
123
166
167
203
116
53
59
71
94
87
82
175
247
105
80
77
73
64
58
58
53
157
69
99
78
64
60
59
105
61
60
87
165
96
58
60
60
68
60
60
60
126
137
79
237
146
219
133
60
51
236
161
101
65
110
58
102
163
59
125
102
149
213
126
150
61
82
120
125
107
84
63
92
88
84
82
76
59
60
60
57
81
100
124
143
117
134
184
180
181
165
103
122
142
156
133
149
140
167
193
167
173
101
226
127
109
106
112
108
141
107
55
54
58
59
60
58
62
99
91
108
120
119
73
82
70
57
56
54
89
93
191
93
60
60
60
57
106
78
58
57
150
122
90
248
139
211
95
58
145
146
125
58
59
109
80
200
158
60
147
69
200
171
130
79
109
127
179
154
114
91
93
55
56
58
59
59
60
60
60
67
107
94
89
154
153
145
84
164
182
158
103
66
70
193
169
139
203
151
115
138
152
82
149
162
111
84
127
62
53
59
60
59
55
73
59
71
103
88
144
156
100
102
247
156
122
92
107
108
86
168
107
60
60
60
60
60
59
100
153
71
177
129
59
244
173
190
58
112
134
63
61
59
64
64
110
196
113
68
175
162
141
115
65
92
60
81
111
61
152
150
157
75
60
60
60
60
60
60
56
145
77
90
89
157
119
108
166
144
155
151
123
76
101
221
108
154
214
147
152
144
83
72
129
161
138
123
63
133
62
60
65
97
174
72
59
60
58
129
61
81
129
249
148
68
80
98
69
73
78
87
59
60
60
60
60
60
59
59
105
55
187
121
58
247
145
168
56
125
94
58
84
118
59
53
169
136
137
65
229
137
161
63
59
58
102
60
129
99
141
76
59
58
56
60
60
60
60
60
59
68
130
58
98
192
160
59
71
58
150
184
132
75
95
188
129
167
193
129
96
114
83
65
215
103
90
102
132
145
134
97
91
77
63
59
60
60
59
59
136
85
241
139
122
108
92
56
100
59
59
95
60
60
60
60
64
110
153
148
131
137
201
114
83
250
139
180
139
139
80
48
203
159
115
188
188
73
88
126
158
188
137
86
61
98
97
75
136
95
82
137
92
180
121
59
60
60
60
60
60
96
98
122
146
116
61
60
60
62
191
136
71
78
123
167
169
165
130
192
82
80
53
133
155
124
81
54
125
159
141
135
86
88
57
59
60
60
59
50
181
217
145
101
58
71
68
68
185
118
56
106
60
60
60
60
69
79
60
52
96
101
202
162
137
242
157
124
144
81
102
145
194
62
125
179
136
54
52
154
180
139
133
126
125
63
165
142
128
174
124
118
103
90
57
60
60
60
60
60
50
156
116
143
132
60
60
56
110
185
149
107
56
94
51
165
185
129
198
126
154
120
166
182
195
162
74
61
171
91
191
131
135
222
84
87
59
59
69
231
193
139
103
74
61
58
79
105
185
201
116
102
60
60
60
60
60
60
59
76
86
48
208
129
85
228
161
137
154
151
67
197
126
65
243
192
90
113
161
121
152
81
95
121
61
232
114
53
115
170
77
95
115
109
59
60
60
60
59
59
144
62
141
160
57
70
79
144
138
63
170
58
111
122
114
162
232
98
112
132
117
98
74
124
169
193
123
239
190
69
209
237
190
177
183
63
59
65
231
177
167
80
79
118
106
60
60
75
161
94
64
121
60
60
60
60
60
59
68
129
58
52
178
92
114
200
124
136
158
163
193
147
52
164
124
82
80
109
55
60
145
82
99
55
59
63
129
53
124
184
175
57
75
110
63
59
59
59
66
203
66
93
90
60
60
79
59
101
56
165
77
59
60
58
153
127
240
107
158
116
59
59
57
100
75
140
120
165
182
157
137
102
151
213
138
59
93
186
148
82
93
95
72
97
79
82
59
59
68
107
61
116
60
60
60
60
60
88
107
92
113
137
203
145
247
194
119
67
165
147
194
156
128
205
160
115
124
83
59
57
171
57
111
52
56
59
55
185
100
167
73
87
59
79
118
62
60
70
173
141
86
62
59
60
59
58
57
74
157
58
77
57
60
64
191
159
218
135
136
58
60
60
76
113
88
68
143
102
81
88
140
164
217
127
190
203
169
135
74
66
61
61
65
61
68
213
134
130
138
191
103
132
60
60
60
60
57
97
190
246
83
41
225
133
211
201
118
176
149
235
154
81
161
152
59
53
59
101
113
173
234
97
129
146
154
121
98
239
114
184
107
76
58
63
124
66
91
138
91
115
58
60
58
56
100
99
98
131
82
171
91
188
81
162
115
69
197
173
112
84
59
57
108
46
58
59
121
76
70
80
79
225
198
220
179
106
71
108
135
145
117
117
130
117
101
209
194
67
127
139
167
142
60
60
60
60
55
146
99
135
59
62
207
182
180
208
115
76
220
195
166
142
184
125
124
122
126
86
142
199
216
198
188
204
252
126
47
109
174
63
67
116
66
59
79
246
162
175
54
57
55
80
102
118
67
56
57
57
59
86
55
131
164
183
72
53
163
160
150
59
93
49
164
148
59
60
96
79
70
118
237
242
184
129
110
60
60
59
53
55
91
97
81
81
104
112
247
141
194
188
129
143
60
60
60
59
82
143
57
83
65
72
217
187
108
208
106
142
173
142
80
180
173
92
85
77
145
196
231
244
236
193
171
136
148
105
95
116
94
78
175
58
99
65
59
106
218
137
67
131
145
95
55
60
60
60
60
60
59
63
124
102
109
63
79
123
137
205
158
110
113
140
162
71
60
60
62
87
95
247
216
138
120
115
58
60
60
60
60
60
60
60
60
60
59
58
215
147
67
56
57
114
60
60
57
106
133
57
60
59
59
144
224
164
73
186
102
202
74
72
238
189
235
228
210
177
169
161
174
185
155
138
141
194
79
56
83
174
141
64
118
117
54
215
59
192
168
120
133
114
61
59
60
60
60
60
60
60
60
244
75
86
119
59
58
135
171
179
124
103
58
181
110
121
59
60
51
216
229
137
117
99
97
58
60
60
60
58
60
60
60
60
60
59
82
153
213
170
74
59
67
88
59
58
220
255
96
60
60
60
60
184
129
89
126
165
178
188
200
211
145
185
153
104
72
97
81
106
171
148
167
159
95
176
141
206
147
103
92
91
105
188
213
141
141
111
126
132
74
58
60
60
60
60
60
60
60
59
81
82
50
183
74
79
106
76
159
179
94
157
207
179
166
113
113
103
234
176
168
95
117
124
71
60
60
60
61
131
59
60
60
60
55
153
209
147
87
237
56
73
65
114
86
137
144
140
57
60
59
89
136
188
159
210
248
145
137
183
191
138
103
80
82
53
60
57
124
117
189
72
164
151
140
163
90
194
89
101
114
87
54
44
154
131
108
141
79
81
91
59
59
59
60
60
60
60
60
59
59
58
167
169
122
82
106
94
200
172
82
152
239
111
109
53
75
206
167
183
142
111
161
238
131
57
60
53
135
52
60
60
60
61
137
228
151
58
51
213
144
59
59
61
124
60
56
58
60
60
64
145
181
148
185
179
255
133
186
157
108
61
59
60
67
119
66
72
103
154
135
157
186
153
102
124
59
48
112
76
54
77
169
115
219
68
156
122
74
69
132
58
78
60
56
59
60
60
62
72
74
87
80
112
132
161
59
58
179
146
142
89
234
115
113
159
213
142
228
115
51
66
72
204
255
115
80
119
90
60
60
60
55
168
78
51
56
67
83
167
223
59
59
60
59
59
60
61
61
61
66
196
195
237
232
164
254
141
192
116
54
60
60
60
60
58
102
255
137
193
154
199
242
115
91
106
59
59
59
85
99
70
207
180
131
69
77
150
70
91
134
134
109
162
241
66
60
60
77
64
58
114
123
74
124
115
59
59
169
137
71
140
220
102
219
145
137
233
169
52
60
59
59
75
208
251
205
88
59
60
60
59
118
68
61
64
153
198
136
114
255
150
59
60
83
163
204
169
147
148
142
187
128
94
72
68
244
157
101
102
59
60
60
60
60
60
59
72
155
143
107
78
160
115
160
116
114
108
114
115
142
124
171
150
112
65
68
129
101
182
95
176
178
168
254
65
59
56
71
117
111
201
99
120
86
68
68
140
233
125
128
111
238
218
146
76
237
133
180
52
60
60
60
59
62
183
251
131
56
60
59
58
118
164
156
129
134
103
73
64
182
245
77
59
179
165
153
145
121
107
90
59
57
59
59
132
252
144
133
53
60
60
60
60
60
60
56
101
152
122
128
130
140
53
114
100
57
59
52
117
56
93
136
157
145
124
103
106
167
225
155
130
130
104
144
148
152
111
139
96
147
173
120
130
134
114
138
112
245
92
52
201
207
164
109
196
155
121
161
51
60
60
60
60
60
58
156
234
130
55
117
128
149
104
82
66
56
57
58
70
89
251
113
58
52
51
52
54
58
60
60
60
60
56
126
58
250
141
101
59
60
60
60
60
56
93
114
123
59
194
138
153
140
125
113
94
81
58
109
54
70
99
144
142
120
149
84
73
132
117
211
125
116
108
96
188
142
130
110
81
148
146
54
56
56
119
150
161
222
85
202
189
144
165
203
166
79
54
115
106
57
59
60
60
60
60
56
124
251
191
114
73
84
57
60
59
83
91
66
73
68
248
176
60
60
60
60
60
60
60
60
59
58
136
55
66
255
138
93
60
60
60
60
57
157
87
92
63
114
168
159
150
138
123
107
87
128
58
59
60
57
185
63
144
52
152
98
157
109
85
184
158
93
124
167
171
146
63
58
113
178
121
175
114
64
170
81
157
216
246
167
202
166
178
191
118
69
69
73
149
151
72
70
69
70
71
66
149
136
239
118
59
86
59
60
59
124
96
57
70
62
238
140
62
60
60
60
60
60
60
60
57
142
73
59
62
255
157
78
60
60
60
59
126
85
58
128
90
169
162
153
144
130
117
102
85
71
87
58
60
60
62
57
123
77
111
153
63
60
71
62
60
63
173
149
171
60
95
148
183
155
106
94
134
170
118
77
199
241
137
191
231
218
204
200
188
163
135
110
106
116
111
107
95
94
107
114
160
100
70
237
173
79
59
60
65
101
59
96
53
79
235
156
59
58
60
60
60
60
59
74
123
58
95
60
64
255
143
75
60
59
59
131
110
86
74
133
150
158
152
146
132
121
108
93
77
73
77
197
53
60
60
56
95
102
95
105
89
58
59
60
60
59
98
137
228
81
67
193
108
77
177
197
189
175
163
144
132
117
109
137
151
183
127
113
131
134
107
76
69
111
66
171
88
70
75
73
96
126
160
137
253
203
58
56
105
106
125
172
89
112
233
220
192
130
72
55
59
60
60
58
56
95
78
53
61
255
137
75
86
116
117
89
81
133
150
187
150
148
141
132
131
123
96
84
69
82
80
132
62
60
60
58
96
57
61
59
72
59
60
60
60
59
94
117
173
246
127
169
125
206
202
197
188
177
162
146
126
100
108
107
135
132
100
113
200
108
64
78
74
60
104
75
129
144
91
127
201
85
78
131
175
254
169
95
53
94
121
70
83
216
111
187
237
122
161
146
94
69
76
80
83
120
141
184
219
255
131
209
179
125
215
213
193
158
134
144
131
132
126
118
171
168
89
71
74
92
82
84
117
58
59
58
110
55
60
59
96
64
60
60
60
58
77
137
146
192
242
212
193
202
201
193
184
173
160
142
124
104
76
145
90
147
138
99
113
147
87
104
130
141
124
189
162
66
108
166
146
147
128
84
68
208
255
197
144
219
176
149
224
155
111
86
159
115
69
108
145
177
141
136
205
164
111
88
89
255
135
223
198
178
207
92
57
64
138
148
125
117
112
110
218
129
72
73
90
114
153
167
112
107
69
61
119
55
60
59
59
59
59
59
59
59
140
202
187
120
217
148
194
196
191
185
176
165
151
135
118
99
77
102
134
107
111
123
95
196
155
124
112
115
134
121
129
112
124
150
61
73
91
120
119
179
230
252
95
202
105
159
176
94
60
64
81
194
248
226
194
97
119
157
88
52
95
178
211
253
146
122
61
215
177
131
49
154
156
65
110
90
93
153
225
156
138
124
136
172
172
156
149
152
159
162
189
187
180
168
128
121
114
126
113
91
175
154
162
120
157
159
186
186
182
175
166
155
141
126
109
93
72
79
166
79
151
93
92
155
149
185
147
135
201
99
86
74
144
69
64
124
127
167
215
153
155
252
230
73
103
212
101
78
112
154
129
153
168
215
255
231
183
152
201
203
175
153
149
241
159
84
50
255
142
160
170
87
57
114
183
189
160
140
191
133
153
172
173
166
168
129
116
126
130
109
122
128
123
126
142
143
120
77
61
92
117
78
78
144
83
136
172
173
169
163
153
140
163
113
99
82
67
87
177
157
128
110
104
244
189
113
167
175
76
129
112
124
99
78
91
105
127
164
170
117
74
126
253
133
195
125
132
74
60
86
106
